<svg width="111" height="110" viewBox="0 0 111 110" fill="none" xmlns="http://www.w3.org/2000/svg">
<g clip-path="url(#clip0)">
<path d="M104.752 50.8302C94.6062 49.1961 87.7026 39.6533 89.3367 29.5076C89.9222 25.8373 91.5564 22.5953 93.8721 20.0261C86.6801 13.4108 77.5481 8.76181 67.184 7.10144C39.0714 2.5835 12.6191 21.7039 8.1012 49.8165C3.58327 77.9291 22.7124 104.381 50.825 108.899C78.9376 113.417 105.39 94.2881 109.908 66.1755C110.738 60.9846 110.764 55.855 110.083 50.9089C108.344 51.1361 106.561 51.1186 104.752 50.8302ZM56.0508 76.3736C45.9051 74.7395 39.0015 65.1967 40.6356 55.051C42.2698 44.9053 51.8125 38.0017 61.9582 39.6359C72.1039 41.27 79.0075 50.8127 77.3734 60.9584C75.7392 71.1041 66.1965 78.0078 56.0508 76.3736Z" stroke="url(#paint0_linear)" stroke-miterlimit="10"/>
</g>
<g clip-path="url(#clip1)">
<path d="M100.88 50.634C90.8908 48.3811 84.615 38.4631 86.8679 28.4736C87.6773 24.8595 89.5031 21.7362 91.9653 19.3242C85.2216 12.3 76.4268 7.11127 66.2217 4.81876C38.5414 -1.4138 11.0501 15.9662 4.81749 43.6466C-1.41506 71.3269 15.9737 98.8187 43.654 105.051C71.3343 111.284 98.8262 93.8951 105.059 66.2148C106.206 61.1036 106.549 56.0034 106.177 51.042C104.433 51.1604 102.661 51.0327 100.88 50.634ZM50.8636 73.0257C40.8741 70.7728 34.5983 60.8548 36.8513 50.8653C39.1042 40.8759 49.0221 34.6001 59.0116 36.8531C69.0011 39.106 75.2768 49.0239 73.0239 59.0134C70.771 69.0029 60.853 75.2786 50.8636 73.0257Z" stroke="url(#paint1_linear)" stroke-miterlimit="10"/>
</g>
<defs>
<linearGradient id="paint0_linear" x1="28.0298" y1="16.2368" x2="89.208" y2="100.324" gradientUnits="userSpaceOnUse">
<stop stop-color="#6A90FF"/>
<stop offset="1" stop-color="#8644F9"/>
</linearGradient>
<linearGradient id="paint1_linear" x1="26.7152" y1="11.4822" x2="82.3589" y2="98.8973" gradientUnits="userSpaceOnUse">
<stop stop-color="#6A90FF"/>
<stop offset="1" stop-color="#8644F9"/>
</linearGradient>
<clipPath id="clip0">
<rect width="104" height="104" fill="white" transform="translate(7 6)"/>
</clipPath>
<clipPath id="clip1">
<rect width="103.635" height="103.635" fill="white" transform="translate(6.43359) rotate(3.55936)"/>
</clipPath>
</defs>
</svg>
