<svg id="Capa_1" data-name="Capa 1" xmlns="http://www.w3.org/2000/svg" viewBox="0 0 192.7 191.13"><defs><style>.cls-1{fill:#fff;}</style></defs><g id="Double_Chevron_Down" data-name="Double Chevron Down"><path class="cls-1" d="M20.75,104.17,96.36,29.65,172,104.19a12.23,12.23,0,0,0,17.18,0,12,12,0,0,0,0-17L105,4.18a12.58,12.58,0,0,0-17.19,0l-84.2,83a11.93,11.93,0,0,0,0,17A12.25,12.25,0,0,0,20.75,104.17Z" transform="translate(0 -0.79)"/><path class="cls-1" d="M105,88.38a12.58,12.58,0,0,0-17.19,0l-84.2,83a12,12,0,0,0,0,17,12.23,12.23,0,0,0,17.18,0l75.62-74.53L172,188.39a12.23,12.23,0,0,0,17.18,0,12,12,0,0,0,0-17Z" transform="translate(0 -0.79)"/></g></svg>