<svg id="Capa_1" data-name="Capa 1" xmlns="http://www.w3.org/2000/svg" viewBox="0 0 192.66 191.13"><defs><style>.cls-1{fill:#ff3378;}</style></defs><g id="Double_Chevron_Down" data-name="Double Chevron Down"><path class="cls-1" d="M172,87.74,96.4,162.26,20.76,87.72a12.23,12.23,0,0,0-17.18,0,12,12,0,0,0,0,17l0,0,84.18,83a12.57,12.57,0,0,0,17.19,0l84.2-83a11.94,11.94,0,0,0,.13-16.87l-.13-.13A12.25,12.25,0,0,0,172,87.74Z" transform="translate(-0.05 0)"/><path class="cls-1" d="M87.76,103.53a12.57,12.57,0,0,0,17.19,0l84.2-83a12,12,0,0,0,0-17l0,0a12.23,12.23,0,0,0-17.18,0L96.35,78.06,20.76,3.52a12.23,12.23,0,0,0-17.18,0,12,12,0,0,0,0,17l0,0Z" transform="translate(-0.05 0)"/></g></svg>