<svg xmlns="http://www.w3.org/2000/svg" viewBox="0 0 1623.14 1195.94"><defs><style>.cls-1,.cls-5{fill:#ff3378;}.cls-2{fill:#fcfcfc;}.cls-2,.cls-26{stroke:#fcb6d1;stroke-miterlimit:10;}.cls-3{fill:#ffe9f0;opacity:0.4;}.cls-4{fill:#fff;}.cls-5{opacity:0.5;}.cls-6{fill:#ffe1ec;}.cls-7{fill:#fcd9e3;}.cls-8{fill:#ffeef3;}.cls-9{fill:#ffeef1;}.cls-10{fill:#d1e5ca;}.cls-11{fill:#bbe8b8;}.cls-12{fill:#b3ddac;}.cls-13{fill:#ffd4e2;}.cls-14{fill:#1b1b43;}.cls-15{fill:#e5e5e5;}.cls-16{fill:#ffbc96;}.cls-17{fill:#7cb9fc;}.cls-18{fill:#d28572;}.cls-19{fill:#fe5b52;opacity:0.2;}.cls-20{fill:#ff92b1;}.cls-21{fill:#ffeef4;}.cls-22{fill:#ffd4e6;}.cls-23{fill:#fcd5a2;}.cls-24{fill:#ffd4e8;}.cls-25{fill:#cc1159;}.cls-26,.cls-27{fill:#fcb6d1;}</style></defs><g id="OBJECTS"><path class="cls-1" d="M1586.62,293.12H422.15V246.77a29.94,29.94,0,0,1,29.9-29.9h1104.7a29.92,29.92,0,0,1,29.87,29.9Zm-1162-2.5H1584.12V246.77a27.42,27.42,0,0,0-27.37-27.4H452.05a27.44,27.44,0,0,0-27.4,27.4Z" transform="translate(-187.82 -94.25)"/><path class="cls-1" d="M1556.75,1036.85H452.05a29.93,29.93,0,0,1-29.9-29.9V246.77a29.94,29.94,0,0,1,29.9-29.9h1104.7a29.92,29.92,0,0,1,29.87,29.9V1007A29.92,29.92,0,0,1,1556.75,1036.85ZM452.05,219.37a27.44,27.44,0,0,0-27.4,27.4V1007a27.43,27.43,0,0,0,27.4,27.4h1104.7a27.42,27.42,0,0,0,27.37-27.4V246.77a27.42,27.42,0,0,0-27.37-27.4Z" transform="translate(-187.82 -94.25)"/><rect class="cls-2" x="1148.62" y="0.5" width="474.01" height="290.81"/><circle class="cls-3" cx="400.16" cy="264.79" r="125.85" transform="translate(-257.85 266.26) rotate(-45)"/><path class="cls-1" d="M442.33,691.87c-4.19,0-8.42-.2-12.57-.52l.19-2.49c4.09.32,8.26.49,12.4.51Zm12.58-.37-.16-2.5c4.1-.26,8.26-.68,12.34-1.24l.34,2.48C463.29,690.8,459.08,691.23,454.91,691.5ZM417.26,690c-4.14-.62-8.3-1.39-12.37-2.3l.54-2.44c4,.89,8.12,1.66,12.2,2.27Zm62.56-1.87-.51-2.44c4-.85,8.07-1.86,12-3L492,685C488,686.2,483.91,687.22,479.82,688.08Zm-87.1-3.62c-4-1.2-8-2.57-11.93-4.06l.89-2.34c3.85,1.47,7.81,2.82,11.76,4ZM504,681.12l-.86-2.34c3.85-1.42,7.71-3,11.46-4.7l1,2.28C511.82,678.08,507.9,679.68,504,681.12Zm-134.8-5.63c-3.79-1.77-7.56-3.7-11.22-5.74l1.22-2.18c3.6,2,7.32,3.91,11.05,5.65Zm157.69-4.72-1.19-2.19c3.62-2,7.21-4.08,10.68-6.3l1.35,2.11C534.2,666.64,530.55,668.79,526.88,670.77ZM347.2,663.23c-3.49-2.29-6.95-4.74-10.27-7.27l1.52-2c3.27,2.5,6.68,4.91,10.12,7.17Zm200.87-6-1.49-2c3.3-2.46,6.56-5.07,9.68-7.75l1.63,1.89C554.73,652.11,551.42,654.75,548.07,657.25ZM327.2,648c-3.13-2.76-6.2-5.68-9.13-8.66l1.78-1.75c2.89,2.94,5.92,5.81,9,8.53Zm239.93-7.13-1.76-1.78c2.92-2.9,5.77-5.95,8.48-9l1.88,1.64C573,634.8,570.09,637.89,567.13,640.84ZM309.58,630c-2.71-3.18-5.34-6.5-7.81-9.86l2-1.48c2.43,3.31,5,6.58,7.69,9.72Zm274.08-8.14-2-1.51c2.48-3.29,4.87-6.71,7.11-10.17l2.1,1.36C588.61,615.07,586.18,618.54,583.66,621.88Zm-289-12.12c-2.23-3.53-4.35-7.19-6.32-10.87l2.21-1.18c1.93,3.63,4,7.24,6.22,10.72Zm302.65-9-2.19-1.2c2-3.62,3.86-7.35,5.58-11.09l2.27,1C601.26,593.3,599.35,597.08,597.34,600.75ZM282.85,587.6c-1.7-3.82-3.28-7.74-4.69-11.66l2.35-.85c1.39,3.86,2.95,7.73,4.62,11.49Zm325-9.73L605.5,577c1.45-3.86,2.77-7.82,3.93-11.77l2.4.71C610.65,569.94,609.31,574,607.84,577.87ZM274.31,564c-1.13-4-2.13-8.13-3-12.22l2.45-.51c.83,4,1.81,8.09,2.93,12.06Zm340.63-10.2-2.44-.54c.88-4,1.61-8.12,2.2-12.2l2.47.35C616.58,545.5,615.83,549.67,614.94,553.75ZM269.26,539.32c-.54-4.14-.94-8.35-1.19-12.53l2.5-.14c.24,4.11.64,8.27,1.17,12.34Zm349.25-10.47-2.5-.17c.29-4.1.44-8.27.44-12.4H619C619,520.46,618.8,524.69,618.51,528.85ZM270.27,514.24l-2.5,0c.05-4.18.25-8.41.59-12.56l2.49.2C270.52,506,270.32,510.12,270.27,514.24Zm346-6.29c-.19-4.12-.54-8.28-1-12.36l2.48-.29c.49,4.13.84,8.35,1,12.54ZM272.32,489.54l-2.47-.39c.64-4.13,1.44-8.29,2.37-12.35l2.44.56C273.73,481.37,273,485.46,272.32,489.54Zm341-6.2c-.78-4-1.72-8.11-2.78-12.09l2.41-.65c1.09,4,2,8.16,2.83,12.27Zm-335.45-18-2.39-.74c1.23-4,2.62-8,4.13-11.9l2.33.91C280.45,457.49,279.08,461.43,277.87,465.38Zm329-6c-1.35-3.89-2.86-7.77-4.49-11.55l2.3-1c1.65,3.84,3.18,7.78,4.55,11.72Zm-320-17.16-2.26-1.07c1.79-3.78,3.74-7.54,5.8-11.18l2.18,1.23C290.54,434.81,288.62,438.52,286.85,442.24Zm310.24-5.58c-1.9-3.66-4-7.29-6.1-10.79l2.13-1.31c2.18,3.55,4.27,7.24,6.19,10.94Zm-298-16L297,419.26c2.31-3.48,4.78-6.92,7.33-10.23l2,1.53C303.77,413.82,301.34,417.21,299.06,420.64Zm285.07-5.1c-2.4-3.35-5-6.65-7.58-9.82l1.92-1.6c2.67,3.22,5.26,6.57,7.69,10ZM314.22,401l-1.86-1.66c2.78-3.12,5.71-6.17,8.71-9.08l1.74,1.79C319.86,394.93,317,397.94,314.22,401Zm254.07-4.54c-2.86-3-5.85-5.88-8.91-8.64l1.68-1.86c3.1,2.81,6.14,5.75,9,8.77ZM332,383.74l-1.61-1.91c3.19-2.69,6.53-5.29,9.91-7.75l1.47,2C338.45,378.52,335.16,381.09,332,383.74Zm217.87-3.9c-3.25-2.54-6.63-5-10-7.29l1.4-2.07c3.47,2.33,6.89,4.82,10.19,7.39ZM352.07,369.18l-1.32-2.12c3.55-2.2,7.22-4.31,10.91-6.25l1.17,2.21C359.19,364.94,355.57,367,352.07,369.18ZM529.31,366c-3.58-2.05-7.28-4-11-5.78L519.4,358c3.77,1.82,7.52,3.79,11.15,5.87ZM374,357.64l-1-2.29c3.82-1.67,7.75-3.23,11.69-4.62l.83,2.36C381.64,354.46,377.76,356,374,357.64Zm133-2.4c-3.83-1.52-7.77-2.91-11.7-4.15l.74-2.38c4,1.25,8,2.67,11.88,4.2Zm-109.59-5.87-.67-2.41c4-1.11,8.15-2.08,12.25-2.9l.48,2.45C405.37,347.32,401.31,348.28,397.35,349.37Zm85.93-1.56c-4-.94-8.1-1.76-12.17-2.41l.4-2.47c4.12.67,8.28,1.49,12.34,2.45Zm-61.62-3.28-.31-2.48c4.13-.51,8.35-.89,12.53-1.11l.13,2.49C429.89,343.65,425.74,344,421.66,344.53Zm37.14-.66c-4.09-.37-8.26-.59-12.38-.66l0-2.5c4.18.08,8.41.3,12.56.67Z" transform="translate(-187.82 -94.25)"/><path class="cls-4" d="M1585.38,246.77V1007a28.65,28.65,0,0,1-28.63,28.65H452.05A28.65,28.65,0,0,1,423.4,1007V246.77a28.65,28.65,0,0,1,28.65-28.65h1104.7A28.65,28.65,0,0,1,1585.38,246.77Z" transform="translate(-187.82 -94.25)"/><path class="cls-4" d="M1585.38,246.77v45.1H423.4v-45.1a28.65,28.65,0,0,1,28.65-28.65h1104.7A28.65,28.65,0,0,1,1585.38,246.77Z" transform="translate(-187.82 -94.25)"/><circle class="cls-1" cx="300.09" cy="160.75" r="13.33"/><path class="cls-1" d="M538.75,241.67A13.33,13.33,0,1,0,552.08,255,13.35,13.35,0,0,0,538.75,241.67Z" transform="translate(-187.82 -94.25)"/><path class="cls-1" d="M589.58,268.33A13.33,13.33,0,1,1,602.92,255,13.35,13.35,0,0,1,589.58,268.33Zm0-24.16A10.83,10.83,0,1,0,600.42,255,10.84,10.84,0,0,0,589.58,244.17Z" transform="translate(-187.82 -94.25)"/><path class="cls-1" d="M917.66,269.84H669.84a14.85,14.85,0,0,1,0-29.69H917.66a14.85,14.85,0,0,1,0,29.69ZM669.84,242.65a12.35,12.35,0,0,0,0,24.69H917.66a12.35,12.35,0,0,0,0-24.69Z" transform="translate(-187.82 -94.25)"/><path class="cls-1" d="M1232.79,645.62c0,119.7-97,216.75-216.72,216.75s-216.75-97-216.75-216.75c0-112.3,85.42-204.65,194.82-215.65l7.23,71.13a145.16,145.16,0,1,0,154.22,104.2l68.73-19.85A216.47,216.47,0,0,1,1232.79,645.62Z" transform="translate(-187.82 -94.25)"/><circle class="cls-4" cx="828.24" cy="551.37" r="175"/><circle class="cls-5" cx="828.24" cy="551.37" r="175"/><ellipse class="cls-4" cx="828.24" cy="551.37" rx="123.95" ry="123.99"/><path class="cls-1" d="M1030.21,706.59v18.85h-24v-18c-17-1-33.44-5.61-43.63-11.89l12.9-29.21a81.44,81.44,0,0,0,39.22,10.87c11.38,0,15.46-2.38,15.46-6.46,0-14.94-65.71-2.88-65.71-47.21,0-19.19,13.92-35.32,41.76-39.23V565.8h24V584c12.55,1.19,24.78,4.42,34.46,9.85l-12.05,29c-11.73-5.94-22.76-8.83-33.11-8.83-11.73,0-15.46,3.4-15.46,7.47,0,14.27,65.71,2.38,65.71,46.2C1069.76,686,1056.52,702,1030.21,706.59Z" transform="translate(-187.82 -94.25)"/><path class="cls-6" d="M1363.34,504.31l-29.86-82.48a87.72,87.72,0,1,0,107.71,42.08Z" transform="translate(-187.82 -94.25)"/><path class="cls-1" d="M1452.85,432.66a87.73,87.73,0,0,0-107.7-42.08L1375,473.06Z" transform="translate(-187.82 -94.25)"/><rect class="cls-7" x="1092.18" y="691.15" width="207.5" height="197.5"/><rect class="cls-4" x="1124.68" y="743.65" width="116.25" height="8.34"/><rect class="cls-4" x="1124.68" y="768.65" width="116.25" height="8.34"/><rect class="cls-8" x="327.18" y="313.65" width="180.44" height="305"/><rect class="cls-4" x="354.68" y="357.82" width="118.33" height="108.33"/><rect class="cls-9" x="600.42" y="426.02" width="2.5" height="160.43" transform="translate(-365.82 513.93) rotate(-47.53)"/><rect class="cls-9" x="521.45" y="504.98" width="160.43" height="2.5" transform="translate(-371.77 444.97) rotate(-42.48)"/><rect class="cls-4" x="1.19" y="438.22" width="412.71" height="271.93"/><path class="cls-1" d="M602.92,805.59H187.82V531.28h415.1ZM190.21,803.2H600.53V533.66H190.21Z" transform="translate(-187.82 -94.25)"/><polyline class="cls-4" points="44.68 644.48 71.34 594.48 126.34 646.15 163.01 539.48 231.34 614.48 276.34 596.15 358.01 489.48"/><polygon class="cls-1" points="126.9 648.38 71.68 596.51 45.78 645.07 43.57 643.89 71.01 592.45 125.79 643.91 162.51 537.08 231.68 613 275.56 595.12 357.02 488.72 359 490.24 277.13 597.18 231.01 615.97 230.42 615.32 163.51 541.88 126.9 648.38"/><circle class="cls-1" cx="71.55" cy="594.27" r="6.88"/><circle class="cls-1" cx="125.93" cy="644.9" r="6.88"/><circle class="cls-1" cx="163.43" cy="539.9" r="6.88"/><line class="cls-4" x1="120.05" y1="482.82" x2="295.05" y2="482.82"/><rect class="cls-1" x="120.05" y="481.57" width="175" height="2.5"/><path class="cls-10" d="M1170.28,1189.77A211.18,211.18,0,0,1,1310.83,958c-26.28,18.39-42.32,48.13-53.52,78.19s-18.53,61.62-32.35,90.58-35.58,56-65.78,66.84Z" transform="translate(-187.82 -94.25)"/><path class="cls-10" d="M1163,1190.17A485,485,0,0,0,1131,1026c-7.12-18.58-15.67-37.12-29.57-51.37s-34.1-23.62-53.69-20.14c24.39,18.26,37,48.3,44.15,77.93s9.86,60.38,19.88,89.17,29.19,56.52,57.88,66.81Z" transform="translate(-187.82 -94.25)"/><path class="cls-11" d="M1159.19,1193.85c-14-37.57-29.11-76.08-57.16-104.7s-72.5-45-109.23-29a135.67,135.67,0,0,1,75.88,47.95c13.84,17.57,23.14,38.42,37.37,55.68s35.94,31.16,57.93,27Z" transform="translate(-187.82 -94.25)"/><path class="cls-11" d="M1154.73,1191.28c-5.71-41.23-11.43-83.12-5.41-124.3s25.5-82.3,60.39-105c-19.31,18.93-25.76,47.62-25.77,74.67s5.47,53.85,5.93,80.9-4.91,55.77-23.2,75.7Z" transform="translate(-187.82 -94.25)"/><path class="cls-11" d="M1174,1185.27c13.37-34.07,27.62-69.44,54.85-93.9a118.92,118.92,0,0,1,63-29.15c-16.33,13-26.55,32.12-35,51.21s-15.8,39-28.08,55.87-30.72,30.8-51.59,31.69Z" transform="translate(-187.82 -94.25)"/><polygon class="cls-4" points="1054.12 1194.69 903.93 1194.69 880.78 1079.16 1077.27 1079.16 1054.12 1194.69"/><path class="cls-12" d="M1243,1290.19H1090.73l-23.65-118h199.54Zm-150.18-2.5h148.14l22.65-113H1070.13Z" transform="translate(-187.82 -94.25)"/><polygon class="cls-13" points="1322.99 1125.22 1322.99 1194.69 1232.89 1194.69 1274.14 1161.04 1276.31 1118.7 1322.99 1125.22"/><rect class="cls-14" x="1469.31" y="1251.6" width="2.5" height="23.74" transform="translate(-646.24 1363.97) rotate(-46.43)"/><rect class="cls-14" x="1283.42" y="1143.65" width="30.83" height="2.5"/><polygon class="cls-13" points="1428.28 1128.47 1431.54 1194.69 1341.44 1194.69 1379.43 1162.12 1379.43 1121.96 1428.28 1128.47"/><rect class="cls-14" x="1573" y="1253.22" width="2.5" height="18.67" transform="translate(-602.04 1512.28) rotate(-48.54)"/><rect class="cls-14" x="1389.67" y="1144.9" width="30.42" height="2.5"/><path class="cls-15" d="M1519.88,820.13q2.32,207.66,35,408.56h75.91c-15.79-102.4-22.93-226.75-14.1-391.62l-54.82-44.91Z" transform="translate(-187.82 -94.25)"/><path class="cls-15" d="M1459.87,838.45l-34.35,152.78a272.84,272.84,0,0,0-1.69,111.67L1448,1227.69h75.92l-23-163.82,54.94-249.73Z" transform="translate(-187.82 -94.25)"/><path class="cls-16" d="M1689.37,493.52l4.06-9.68s-14.68-30.94-10-35,12.19,7.5,12.19,7.5-2.19-37.5,5-37.82c6.06-.26,5.63,10.63,6.25,26.88,0,0,3.75-5,10.65.16,3.1-5.16,9.66-1.72,11.54,1.4,2.19-2.5,11.25-1.87,10,8.75-1.59,13.48-7.81,38.44-7.81,38.44l-20,16.56Z" transform="translate(-187.82 -94.25)"/><path class="cls-17" d="M1528.75,622.9l30.41-.24c53.34-4.76,95-48.09,95-48.09l35.2-81.05,41.88.63-24.58,95.24a69.65,69.65,0,0,1-21.81,35.22L1597.5,700.4Z" transform="translate(-187.82 -94.25)"/><polygon class="cls-17" points="1257.57 597.61 1272.05 744.2 1428.84 742.82 1423.42 566.15 1340.92 528.65 1283.84 552.82 1257.57 597.61"/><path class="cls-16" d="M1348.29,706.1a15.82,15.82,0,0,0-9.19-4c-17.33-1.44-71.52-5.62-71-1.42.62,5,41.87,23.75,41.87,23.75l26.47,29.78,24.24-37.16Z" transform="translate(-187.82 -94.25)"/><path class="cls-17" d="M1466.48,637a36,36,0,0,0-25.91,19.16L1394.36,747l-33.67-29.88-24.24,37.16,8.84,10c13.09,14.73,28.36,34.52,48.8,38.82,10.41,2.18,20.11-2.14,27.57-9.31a88.91,88.91,0,0,0,14.27-18.25l18.43-30.38,58.75-116.25Z" transform="translate(-187.82 -94.25)"/><path class="cls-18" d="M1712.29,464c-5.9,0-6.35-7.72-6.36-18.64h1.88c0,12.85,1,16.77,4.48,16.77a2.36,2.36,0,0,0,1.8-.84c1.67-1.79,2.32-6,2.52-9.74-.13-2.71-.07-5.08,0-6.06l1.88,0a58.6,58.6,0,0,1,0,5.87c.26,5.09,1.11,10.12,2.81,10.63a2.73,2.73,0,0,0,2.52-.37c2-1.46,3.16-5.58,3.75-9.27a45.64,45.64,0,0,1,.55-5.54l1.87.17a48.15,48.15,0,0,1-.48,5c-.13,3.9.31,7.67,1.89,8.34a3.07,3.07,0,0,0,2.94,0c2.15-1.31,2.93-5.73,3.05-7.32l1.87.14c0,.27-.54,6.7-3.94,8.78a4.9,4.9,0,0,1-4.65.14c-.44-.19-1.82-1-2.59-3.91a10.24,10.24,0,0,1-3.17,5,4.55,4.55,0,0,1-4.15.65c-1.65-.5-2.67-2.6-3.29-5.23a9.84,9.84,0,0,1-2,4A4.21,4.21,0,0,1,1712.29,464Z" transform="translate(-187.82 -94.25)"/><path class="cls-16" d="M1515.52,658.47a24.18,24.18,0,0,1-26-22.15l-.27-3.37-3.8-47.15,29.37-2.35,18.85-1.53,4.05,50.5A24.17,24.17,0,0,1,1515.52,658.47Z" transform="translate(-187.82 -94.25)"/><path class="cls-14" d="M1524.17,599.35c-9.15,16.12-22.25,27.72-35,33.6l-3.8-47.15,29.37-2.35Z" transform="translate(-187.82 -94.25)"/><path class="cls-16" d="M1533.75,550l-5.83,49.18s-18.75,17.92-46.25,17.07c-10-.3-15.92-9.8-19.37-21.87a112.67,112.67,0,0,1-3.13-16,222.16,222.16,0,0,1-1.25-35.88l42.5-14.15Z" transform="translate(-187.82 -94.25)"/><path class="cls-14" d="M1527.29,570.19c-4.43-15.77-12.38-23.71-23.13-25.42-34.16,18.55-56.35,7.5-72.5-13.12,39.59,7.71,56.88-48.54,94.8-11,28.12,8.54,27.6,35.41,11.66,57.29Z" transform="translate(-187.82 -94.25)"/><ellipse class="cls-16" cx="1533.28" cy="573.94" rx="13.69" ry="11.87" transform="translate(488.18 1874.48) rotate(-78.95)"/><path class="cls-14" d="M1537.66,568.85c-2,.33-3.23,1.81-4.18,3.5a18.87,18.87,0,0,0-1.91,5.67l-.73.05a7.76,7.76,0,0,1-.13-3.39,9.87,9.87,0,0,1,1.15-3.25,7.48,7.48,0,0,1,2.37-2.61,4.35,4.35,0,0,1,3.48-.7Z" transform="translate(-187.82 -94.25)"/><path class="cls-14" d="M1468.12,572.17c0,2.13-1,3.85-2.29,3.85s-2.29-1.72-2.29-3.85,1-3.85,2.29-3.85S1468.12,570,1468.12,572.17Z" transform="translate(-187.82 -94.25)"/><path class="cls-14" d="M1487.06,570.6c0,2.3-1.11,4.17-2.48,4.17s-2.48-1.87-2.48-4.17,1.11-4.18,2.48-4.18S1487.06,568.29,1487.06,570.6Z" transform="translate(-187.82 -94.25)"/><path class="cls-14" d="M1473.33,575.3a4.21,4.21,0,0,1-.65,2.09,10.06,10.06,0,0,1-1.27,1.64,6.85,6.85,0,0,0-1.9,2.78,3.22,3.22,0,0,0,.84,2.8,30.38,30.38,0,0,0,2.66,2.67l-.4.61a11.18,11.18,0,0,1-3.48-2.17,5.61,5.61,0,0,1-1.29-1.89,4.1,4.1,0,0,1-.15-2.45,5.09,5.09,0,0,1,1.11-2.07,14.12,14.12,0,0,1,1.49-1.43,6.91,6.91,0,0,0,2.31-2.69Z" transform="translate(-187.82 -94.25)"/><path class="cls-14" d="M1475.13,596.13a23,23,0,0,0,7.27-2.79,23.87,23.87,0,0,0,3.12-2.3c1-.86,1.94-1.79,2.93-2.73l.59.43a14.9,14.9,0,0,1-5.67,6.2,13.47,13.47,0,0,1-8.2,1.92Z" transform="translate(-187.82 -94.25)"/><path class="cls-14" d="M1481.57,560.25c-.54,2.82,8.33,3.73,9.92,4,1.32.23,3.19.38,3.46-1.61.35-2.47-2.34-2.73-3.86-3.06S1482.08,557.58,1481.57,560.25Z" transform="translate(-187.82 -94.25)"/><path class="cls-14" d="M1469.24,562c0,2.72-7.1,3-8.39,3.16-1.06.13-2.54.14-2.43-1.77.14-2.38,2.27-2.45,3.51-2.66S1469.28,559.41,1469.24,562Z" transform="translate(-187.82 -94.25)"/><circle class="cls-19" cx="1314.52" cy="484.74" r="9.06"/><path class="cls-19" d="M1466,587.12a8.92,8.92,0,0,1-3.65,7.23,112.67,112.67,0,0,1-3.13-16A9.07,9.07,0,0,1,1466,587.12Z" transform="translate(-187.82 -94.25)"/><rect class="cls-20" x="458.27" y="784.89" width="173.92" height="11.71"/><polygon class="cls-4" points="632.18 784.9 485.3 784.9 540.93 649.27 687.8 649.27 632.18 784.9"/><path class="cls-1" d="M820.84,880.4H671.26l56.65-138.13H877.49ZM675,877.9H819.16l54.6-133.13H729.59Z" transform="translate(-187.82 -94.25)"/><polygon class="cls-21" points="619.5 773.5 504.07 773.5 547.78 666.91 663.21 666.91 619.5 773.5"/><rect class="cls-14" x="571.2" y="800.35" width="2.5" height="394.98"/><rect class="cls-22" x="432.18" y="796.61" width="280.55" height="22.31"/><rect class="cls-14" x="203.28" y="966.26" width="2.5" height="229.07"/><path class="cls-13" d="M461,1071.13H323.74a30.06,30.06,0,0,1,29.43-23.91h78.36A30.07,30.07,0,0,1,461,1071.13Z" transform="translate(-187.82 -94.25)"/><path class="cls-22" d="M184.59,1180h39.87a15.68,15.68,0,0,1,15.68,15.68v0a0,0,0,0,1,0,0H168.91a0,0,0,0,1,0,0v0A15.68,15.68,0,0,1,184.59,1180Z"/><path class="cls-18" d="M498.21,720.63c3.51,5,8.54,12.19,9.1,18.44.81,9.07-13.72,2.71-13.89,3.5Z" transform="translate(-187.82 -94.25)"/><rect class="cls-16" x="242.28" y="637.07" width="45.92" height="67.3"/><path class="cls-14" d="M476,742.86v48c-14.47-9.09-27-22.59-37.79-38.18Z" transform="translate(-187.82 -94.25)"/><path class="cls-16" d="M501.84,724.72c-1.43,23.25-10.37,49.55-34.78,43.06-19.18-5.09-40.28-21.24-40.28-44.53s16.12-42.18,36-42.18c12.43,0,28.08,6,35.45,17.68C502.65,705.75,502.47,714.58,501.84,724.72Z" transform="translate(-187.82 -94.25)"/><path class="cls-14" d="M461.2,718c6.5-17.25,21.38-18.94,21.38-18.94s34.46,34.08,32.32-1.13c-1.69-28-29-25.34-29-25.34-13.36-17.4-34.79-10.59-42.6-.51s-5.05,4.29-23.45,10.84-8.57,34.54-11.85,36.56c-24.45,0-19.91,24.2-19.91,24.2l57.89,18.88,13.94-38.06Z" transform="translate(-187.82 -94.25)"/><ellipse class="cls-16" cx="458.59" cy="724.94" rx="9.98" ry="12.96" transform="translate(-488.86 232.18) rotate(-30)"/><path class="cls-14" d="M459.84,727.42a15.81,15.81,0,0,0-2.59-4.17,7.81,7.81,0,0,0-1.87-1.36c-.71-.38-1.5-.7-2.31-1.09l.13-.65a7.31,7.31,0,0,1,2.76.37,6.15,6.15,0,0,1,2.49,1.55,6.87,6.87,0,0,1,1.52,2.47,8.85,8.85,0,0,1,.52,2.72Z" transform="translate(-187.82 -94.25)"/><ellipse class="cls-14" cx="437.23" cy="664.68" rx="19.45" ry="21.08" transform="translate(-218.79 -72.81) rotate(-2.71)"/><circle class="cls-19" cx="294.05" cy="643.65" r="8.75"/><path class="cls-23" d="M516.25,964.15,369.18,945.4,396.9,799.22a32.06,32.06,0,0,1,43.25-23.85l50.12,22.28a29.75,29.75,0,0,1,17.5,23.82l2.83,47.75,3.23,54.13Z" transform="translate(-187.82 -94.25)"/><path class="cls-16" d="M650.83,859.15l38.93-11.44A9.85,9.85,0,0,1,698,849c10.65,7.07,39,27.09,31.86,35.27-3.58,4.09-36.13-5.49-36.13-5.49l-47.13,13.15Z" transform="translate(-187.82 -94.25)"/><path class="cls-23" d="M485.83,795.82l5.86,2.52A91.93,91.93,0,0,1,523.4,821l48.27,53.16,79.16-15,10.42,42.5-99.47,31.09a23.38,23.38,0,0,1-21.28-7.19l-71.75-78.07Z" transform="translate(-187.82 -94.25)"/><polygon class="cls-24" points="323.1 1090.99 291.37 1152.8 371.52 1193.94 350.19 1145.17 367.59 1106.52 323.1 1090.99"/><rect class="cls-14" x="514.76" y="1241.52" width="23.74" height="2.5" transform="translate(-517.33 105.04) rotate(-16.4)"/><path class="cls-25" d="M560.83,1225.86l-72.61-27.09L538,1044.05c8.54-22.91,34.87-34.24,58.81-25.32h0c23.93,8.93,36.4,34.74,27.85,57.65Z" transform="translate(-187.82 -94.25)"/><polygon class="cls-24" points="443.43 1121.15 450.51 1194.69 540.61 1194.69 499.36 1161.04 489.68 1118.65 443.43 1121.15"/><rect class="cls-14" x="664.32" y="1259.93" width="24.38" height="2.5" transform="translate(-712.64 389.08) rotate(-28.87)"/><path class="cls-1" d="M696.25,1224.15l-78.75,12.5-53.93-158.58-9.82-28.92-133.93,1.07A55.22,55.22,0,0,1,363.6,989.6l5.58-44.2,132.5,16.67,87.07,9.58c36.25,6.25,47.37,28.2,54.92,56.4Z" transform="translate(-187.82 -94.25)"/><path class="cls-26" d="M1810.46,385.56h-474V94.75h474ZM1339,383.06h469V97.25H1339Z" transform="translate(-187.82 -94.25)"/><rect class="cls-27" x="1209.23" y="198.29" width="27.14" height="49.84"/><rect class="cls-27" x="1263.51" y="175.52" width="27.14" height="72.61"/><rect class="cls-27" x="1317.79" y="194.13" width="27.14" height="53.99"/><rect class="cls-27" x="1372.06" y="156.14" width="27.14" height="91.98"/><rect class="cls-27" x="1426.34" y="131.84" width="27.14" height="116.29"/><rect class="cls-27" x="1480.61" y="97.13" width="27.14" height="150.99"/><rect class="cls-27" x="1534.89" y="43.68" width="27.14" height="204.44"/><rect class="cls-27" x="1209.23" y="67.94" width="21.57" height="24.42"/><rect class="cls-27" x="1264.13" y="79.25" width="146.06" height="6.26"/><rect class="cls-1" x="235.58" y="202.13" width="913.05" height="2.38"/></g></svg>