<svg id="Capa_1" data-name="Capa 1" xmlns="http://www.w3.org/2000/svg" viewBox="0 0 512 510.21"><defs><style>.cls-1{fill:#ffd4e2;}</style></defs><rect class="cls-1" y="133.99" width="512" height="376.22"/><path d="M463.56,206H315.74a7.44,7.44,0,0,0,0,14.87H463.55a15.88,15.88,0,0,1,0,31.76H179.45V220.84h106.1a7.44,7.44,0,0,0,0-14.87H179.45v-6.38a7.44,7.44,0,0,0-7.44-7.44H124.07a.74.74,0,0,1-.58-.26.75.75,0,0,1-.18-.64c10-68,42.81-130.66,92.36-176.57a7.43,7.43,0,0,0-7.91-12.32c-54.31,22.63-99,65-125.71,119.27a7.43,7.43,0,1,0,13.33,6.58A234.87,234.87,0,0,1,174.67,37a317.73,317.73,0,0,0-66.08,152.11A15.65,15.65,0,0,0,124.07,207h40.51v59.38H124.07a15.65,15.65,0,0,0-15.48,17.94A317.65,317.65,0,0,0,174.71,436.5a232.53,232.53,0,0,1-64.23-65A242.45,242.45,0,0,1,71,255.15c-.1-1.43-.19-2.86-.28-4.3,0-.09,0-.18,0-.27-.17-3.05-.28-6.12-.34-9.17v-.07c0-1.55,0-3.09,0-4.62s0-3.32.06-5c0-.7,0-1.39,0-2.08l.09-2.84.12-2.52c0-.8.08-1.6.13-2.4s.11-1.78.17-2.68a244.41,244.41,0,0,1,13.79-65.85,7.44,7.44,0,1,0-14-5,259,259,0,0,0-13.95,61.89H51a26.48,26.48,0,0,0,0,52.95h5.81A257,257,0,0,0,98.07,379.72c27.29,41.23,65.21,72.82,109.69,91.35a7.43,7.43,0,0,0,7.91-12.32c-49.55-45.9-82.35-108.61-92.36-176.57a.72.72,0,0,1,.18-.63.73.73,0,0,1,.59-.27H172a7.44,7.44,0,0,0,7.44-7.44v-6.37H463.56a30.75,30.75,0,0,0,0-61.5ZM51,248.32a11.6,11.6,0,0,1,0-23.2h4.73c-.16,3.85-.25,7.72-.25,11.6,0,1.81,0,3.61.06,5.42,0,.47,0,.93,0,1.4,0,1.37.08,2.74.13,4.11l0,.67Z" transform="translate(0 -1.79)"/><path d="M219.19,496.69,103.41,415.4a7.44,7.44,0,0,0-8.26-.19L68.62,432.07a7.44,7.44,0,0,0,8,12.55l22.33-14.19,92.45,64.91H21L37.31,469.6l13.83-8.8a7.44,7.44,0,1,0-8-12.55l-15.23,9.68a7.47,7.47,0,0,0-2.29,2.29L1.16,498.79a7.43,7.43,0,0,0,6.28,11.42H214.92a7.43,7.43,0,0,0,4.27-13.52Z" transform="translate(0 -1.79)"/><path d="M511.64,500.47l-22.21-68.28a7.63,7.63,0,0,0-.75-1.61l-29.16-47.12a7.44,7.44,0,0,0-12.65,7.82l28.69,46.36,18.76,57.7H243.64V457.8a7.39,7.39,0,0,0-.36-2.28l-19.91-61.81,40.95-41.91,96.68-32L432,366a7.44,7.44,0,0,0,8.11-12.47l-74-48.12a7.45,7.45,0,0,0-6.39-.83L257.93,338.26a7.37,7.37,0,0,0-3,1.86L209.6,386.53a7.45,7.45,0,0,0-1.76,7.48l20.93,65v43.8a7.44,7.44,0,0,0,7.44,7.44H504.57a7.44,7.44,0,0,0,7.07-9.74Z" transform="translate(0 -1.79)"/><path d="M244.45,318.62l-23.4-34.1a7.44,7.44,0,0,0-10.76-1.62L167.39,317a7.42,7.42,0,0,0-2,9.09L186.81,370a7.43,7.43,0,0,0,5.42,4.05,6.71,6.71,0,0,0,1.26.11,7.43,7.43,0,0,0,5.2-2.12l44.83-43.85A7.45,7.45,0,0,0,244.45,318.62Zm-48.81,35.55-14.32-29.24,32-25.42,15.35,22.38Z" transform="translate(0 -1.79)"/><path d="M372.05,115.87,360.69,79a7.45,7.45,0,0,0-10.09-4.62l-64,28a7.43,7.43,0,0,0-4.08,4.46l-16.18,48.51a7.44,7.44,0,0,0,7.05,9.79H333.5a7.44,7.44,0,0,0,5.83-2.82l31.44-39.66A7.41,7.41,0,0,0,372.05,115.87Zm-42.14,34.42H283.76l11.87-35.58,53.3-23.32,7.75,25.13Z" transform="translate(0 -1.79)"/></svg>