<svg id="Capa_1" data-name="Capa 1" xmlns="http://www.w3.org/2000/svg" viewBox="0 0 512 407.09"><defs><style>.cls-1{fill:#ffd4e2;}</style></defs><rect class="cls-1" width="512" height="332.02"/><path d="M113.8,209.86a10,10,0,0,0-7,17.2,34.43,34.43,0,0,0,47.44,0,10,10,0,0,0-13.9-14.39,14.25,14.25,0,0,1-19.64,0,10,10,0,0,0-7-2.81Z" transform="translate(0 -39.89)"/><path d="M130.53,427a10,10,0,1,0,0,20h.05a10,10,0,1,0-.05-20Z" transform="translate(0 -39.89)"/><path d="M511.71,264.23a10,10,0,0,0-6.57-11.9c-23.69-7.83-51.93-25.46-51.93-65.06v-21c0-31.66-5.41-55-16.55-71.46C423.26,75,401.41,65,371.72,65S320.2,75,306.79,94.81c-11.14,16.43-16.56,39.8-16.56,71.46v21c0,39.59-28.22,57.23-51.9,65.06a10,10,0,0,0-6.56,11.9c5.15,20.8,13.07,32.85,27.45,39.61a56.82,56.82,0,0,0-8.06,9.72c-14.66-22.32-42.86-29.92-66.89-36.4-4.45-1.2-8.74-2.35-12.87-3.57V267a85.84,85.84,0,0,0,44.9-75.39V151.87a85.73,85.73,0,1,0-171.45,0v39.71A85.81,85.81,0,0,0,89.75,267v6.63c-4.14,1.22-8.42,2.37-12.87,3.57C43,286.29.86,297.65,0,349.34V437a10,10,0,0,0,10,10H85.63a10,10,0,0,0,0-20H73.52V386.55a10,10,0,1,0-20,0V427H20V349.59c.6-34.1,23.86-42.82,62.08-53.12,3.22-.87,6.49-1.75,9.74-2.67a40.81,40.81,0,0,0,77.5,0c3.25.92,6.52,1.8,9.74,2.67,38.24,10.3,61.5,19,62.08,53.11V427H207.62V386.55a10,10,0,0,0-20,0V427H175.43a10,10,0,0,0,0,20H326.82a10,10,0,0,0,0-20H314.68V386.55a10,10,0,0,0-20,0V427H261.14V349.59c.6-34.1,23.87-42.82,62.11-53.12,3.22-.87,6.49-1.75,9.74-2.67a40.81,40.81,0,0,0,77.49,0c3.26.92,6.53,1.8,9.74,2.67,38.23,10.3,61.49,19,62.09,53.12V427H448.79V386.55a10,10,0,0,0-20,0V427H416.6a10,10,0,0,0,0,20h75.71a10,10,0,0,0,10-10V349.34c-.35-20.94-7.47-35.26-18.08-45.5,14.39-6.76,22.32-18.81,27.48-39.61ZM64.84,151.87a65.73,65.73,0,1,1,131.45,0v10.35c-26.28.87-59.41-2.25-83.85-18.95a10,10,0,0,0-13.59,2.2c-8.46,11.09-19.08,13.84-34,15.62ZM151.4,281a20.83,20.83,0,1,1-41.66,0v-6.21a85.86,85.86,0,0,0,41.66,0Zm-20.82-23.63a65.82,65.82,0,0,1-65.74-65.75V181.21c16.09-1.79,31.23-4.73,43.81-16.76,27.37,15.47,60.8,18.59,87.64,17.78v9.35a65.8,65.8,0,0,1-65.71,65.75ZM323.34,106c9.6-14.14,25.42-21,48.38-21s38.8,6.88,48.39,21c7.93,11.7,12.18,28.85,13,52.22-18.53,3.23-40.36.65-52.42-23.21a10.1,10.1,0,0,0-17.85,0c-12.07,23.86-33.89,26.43-52.42,23.21C311.15,134.89,315.4,117.74,323.34,106Zm7.57,167.55c-4.13,1.21-8.42,2.37-12.87,3.57-12.11,3.26-25.28,6.81-37.24,12.38-15.65-2.66-22.38-7.67-27.16-21.59,16.22-6.75,35.87-19,47.23-40.5a82,82,0,0,0,30,30.31v15.83ZM392.56,281a20.83,20.83,0,1,1-41.65,0v-14.9a81.52,81.52,0,0,0,41.65,0Zm-20.84-32.2a61.56,61.56,0,0,1-61.49-61.49v-8.8a89,89,0,0,0,12.41.9c20.16,0,37.08-7.44,49.08-21.68,12,14.24,28.92,21.68,49.08,21.68a89,89,0,0,0,12.41-.9v8.8A61.55,61.55,0,0,1,371.72,248.76Zm90.93,40.78c-12-5.57-25.12-9.12-37.22-12.38-4.45-1.2-8.74-2.36-12.87-3.57V257.75a82.09,82.09,0,0,0,30-30.3c11.36,21.53,31,33.76,47.25,40.51-4.78,13.9-11.52,18.91-27.18,21.58Z" transform="translate(0 -39.89)"/><path d="M371.72,427a10,10,0,0,0,0,20h.06a10,10,0,0,0-.06-20Z" transform="translate(0 -39.89)"/></svg>