<svg id="Capa_1" data-name="Capa 1" xmlns="http://www.w3.org/2000/svg" viewBox="0 0 512 512"><defs><style>.cls-1{fill:#ff3378;}</style></defs><path class="cls-1" d="M301,45a45,45,0,1,0-45,45A45.05,45.05,0,0,0,301,45ZM256,60a15,15,0,1,1,15-15A15,15,0,0,1,256,60Z" transform="translate(0 0)"/><path class="cls-1" d="M211,467a45,45,0,1,0,45-45A45.05,45.05,0,0,0,211,467Zm45-15a15,15,0,1,1-15,15A15,15,0,0,1,256,452Z" transform="translate(0 0)"/><path class="cls-1" d="M45,211a45,45,0,1,0,45,45,45.05,45.05,0,0,0-45-45Zm0,60a15,15,0,1,1,15-15A15,15,0,0,1,45,271Z" transform="translate(0 0)"/><path class="cls-1" d="M467,211a45,45,0,1,0,45,45,45.05,45.05,0,0,0-45-45Zm0,60a15,15,0,1,1,15-15A15,15,0,0,1,467,271Z" transform="translate(0 0)"/><path class="cls-1" d="M256,90C167.14,90,90,165.33,90,256c0,88.28,74.71,166,166,166,89.9,0,166-76.38,166-166C422,168.94,348.37,90,256,90Zm57.46,43.32a43.31,43.31,0,0,0-11.46,13A49.17,49.17,0,0,0,296.27,159a105.1,105.1,0,0,0-114.9,23.22c-4.28,4.22-11.26,6.88-17.36,3.37L161.3,184a13.67,13.67,0,0,1-2.85-21.3c24.78-26,60.06-42.7,97.56-42.7a131,131,0,0,1,57.46,13.32ZM203,309a74.83,74.83,0,0,1-.23-105.78l0,0a75,75,0,1,1,106,106l-.05,0A74.82,74.82,0,0,1,203,309ZM133.36,198.58A43.36,43.36,0,0,0,146.31,210,49.48,49.48,0,0,0,159,215.72a105.05,105.05,0,0,0,23.08,114.77c4.3,4.27,7.05,11.34,3.5,17.49L184,350.69a13.68,13.68,0,0,1-21.37,2.8C134.71,326.65,120,291,120,256a131,131,0,0,1,13.36-57.41Zm65.17,180.09a43.26,43.26,0,0,0,11.45-13A49.56,49.56,0,0,0,215.73,353a105.07,105.07,0,0,0,114.78-23.08c4.27-4.3,11.34-7.05,17.49-3.5l2.69,1.56a13.68,13.68,0,0,1,2.77,21.4C328.21,375.75,292.92,392,256,392A130.94,130.94,0,0,1,198.53,378.67ZM378.6,313.36A43.17,43.17,0,0,0,365.69,302,49.48,49.48,0,0,0,353,296.27a105.07,105.07,0,0,0-23.08-114.78c-4.3-4.27-7.05-11.34-3.5-17.49l1.56-2.69a13.69,13.69,0,0,1,21.38-2.79C377.06,185.13,392,220.72,392,256a131.82,131.82,0,0,1-13.4,57.37Z" transform="translate(0 0)"/></svg>