<svg id="Capa_1" data-name="Capa 1" xmlns="http://www.w3.org/2000/svg" viewBox="0 0 450 512"><defs><style>.cls-1{fill:#ff3378;}</style></defs><path class="cls-1" d="M436,60H421V45A45.05,45.05,0,0,0,376,0H76A45.05,45.05,0,0,0,31,45V407a45.05,45.05,0,0,0,45,45H91v15a45.05,45.05,0,0,0,45,45H436a45.05,45.05,0,0,0,45-45V105A45.05,45.05,0,0,0,436,60ZM104.18,115.61A44.7,44.7,0,0,0,91,147.43V422H76a15,15,0,0,1-15-15V45A15,15,0,0,1,76,30H376a15,15,0,0,1,15,15V60H178.43a44.7,44.7,0,0,0-31.82,13.18ZM181,90v60H121v-2.57a14.91,14.91,0,0,1,4.39-10.61l42.43-42.43A14.91,14.91,0,0,1,178.43,90ZM451,467a15,15,0,0,1-15,15H136a15,15,0,0,1-15-15V180h75a15,15,0,0,0,15-15V90H436a15,15,0,0,1,15,15Z" transform="translate(-31 0)"/><path class="cls-1" d="M406,212H166a15,15,0,0,0,0,30H406a15,15,0,0,0,0-30Z" transform="translate(-31 0)"/><path class="cls-1" d="M406,272H166a15,15,0,0,0,0,30H406a15,15,0,0,0,0-30Z" transform="translate(-31 0)"/><path class="cls-1" d="M406,332H166a15,15,0,0,0,0,30H406a15,15,0,0,0,0-30Z" transform="translate(-31 0)"/><path class="cls-1" d="M406,392H166a15,15,0,0,0,0,30H406a15,15,0,0,0,0-30Z" transform="translate(-31 0)"/></svg>