<svg xmlns="http://www.w3.org/2000/svg" viewBox="0 0 240.43 110.39"><defs><style>.cls-1{opacity:0.44;}.cls-2{fill:#ffdfef;}.cls-3{fill:#ffaacb;}.cls-4{fill:#ff74a7;}.cls-5{fill:#ff3378;}.cls-6{fill:#c9ddff;}.cls-7{fill:#94afff;}.cls-8{fill:#5f83ff;}.cls-9{fill:#fff6bf;}.cls-10{fill:#fff29f;}.cls-11{fill:#ffec8a;}</style></defs><g id="OBJECTS"><g class="cls-1"><path class="cls-2" d="M42.4,141.07H258.94c1.42-4.34,1.31-9.29-1.33-13s-7.05-5.38-9.82-8.81c-6.13-7.58-1.71-19.34-5.7-28.24-2.33-5.2-7.33-8.79-12.64-10.88s-11-2.9-16.6-4.09c-15-3.2-27.9-9.39-40.68-17.42-11.73-7.37-21.29-18.55-34-24.29C121.91,27,98.58,30.32,90,47.27c-3.12,6.17-4.8,13-7.6,19.29a59.6,59.6,0,0,1-33,31.22c-5.35,2-14.06,3-17,8.49-3.28,6-3,14.75-.46,20.87C34.14,132.56,38,137.1,42.4,141.07Z" transform="translate(-19.54 -30.68)"/><path class="cls-2" d="M202.86,62.47c2.9,3.11,6.93,5.4,11.18,5.29A5.6,5.6,0,0,0,218.36,66a4.61,4.61,0,0,0,.6-4.25,8.57,8.57,0,0,0-2.55-3.61A15.87,15.87,0,0,0,206,54.06c-1.7,0-5,.4-5.71,2.3S201.66,61.18,202.86,62.47Z" transform="translate(-19.54 -30.68)"/><path class="cls-2" d="M257.72,116.83c1.82-.81,2.16-3.21,2.24-5.21.18-4.79-2.35-15.08-8.38-8.4C247.8,107.41,250.77,119.89,257.72,116.83Z" transform="translate(-19.54 -30.68)"/><path class="cls-2" d="M36.26,140.33s-15.89-4.06-16.69-12.89S32.55,128.14,36.26,140.33Z" transform="translate(-19.54 -30.68)"/></g><polygon class="cls-3" points="86.8 66.71 79.31 60.95 86.8 55.19 94.3 60.95 86.8 66.71"/><polygon class="cls-4" points="79.31 98.36 86.8 104.12 86.8 66.71 79.31 60.95 79.31 98.36"/><polygon class="cls-5" points="94.3 98.36 86.8 104.12 86.8 66.71 94.3 60.95 94.3 98.36"/><polygon class="cls-6" points="110.44 44.65 102.95 38.89 110.44 33.13 117.94 38.89 110.44 44.65"/><polygon class="cls-7" points="102.95 98.36 110.44 104.12 110.44 44.65 102.95 38.89 102.95 98.36"/><polygon class="cls-8" points="117.94 98.36 110.44 104.12 110.44 44.65 117.94 38.89 117.94 98.36"/><polygon class="cls-9" points="134.09 32.59 126.59 26.83 134.09 21.07 141.58 26.83 134.09 32.59"/><polygon class="cls-10" points="126.59 98.36 134.09 104.12 134.09 32.59 126.59 26.83 126.59 98.36"/><polygon class="cls-11" points="141.58 98.36 134.09 104.12 134.09 32.59 141.58 26.83 141.58 98.36"/></g></svg>