<svg id="Capa_1" data-name="Capa 1" xmlns="http://www.w3.org/2000/svg" viewBox="0 0 426.67 426.67"><defs><style>.cls-1{fill:#ff3378;}</style></defs><rect class="cls-1" x="192" y="298.67" width="42.67" height="42.67"/><path class="cls-1" d="M213.33,0C95.51,0,0,95.51,0,213.33S95.51,426.67,213.33,426.67s213.34-95.52,213.34-213.34S331.15,0,213.33,0Zm0,388.05A174.72,174.72,0,1,1,388.05,213.33,174.72,174.72,0,0,1,213.33,388.05Z" transform="translate(0 0)"/><path class="cls-1" d="M296.32,150.4A85.33,85.33,0,0,0,128,170.67h42.67A42.82,42.82,0,1,1,256,177.92a44.37,44.37,0,0,1-45,35.41,19,19,0,0,0-19,19h0v45h42.67V253A85.33,85.33,0,0,0,296.32,150.4Z" transform="translate(0 0)"/></svg>