<svg id="Capa_1" data-name="Capa 1" xmlns="http://www.w3.org/2000/svg" viewBox="0 0 504.12 504.11"><path d="M256.56,509C117.57,509,4.5,395.93,4.5,256.94s113.07-252,252.06-252A254.18,254.18,0,0,1,307.19,10a248.47,248.47,0,0,1,27,7.11A8.47,8.47,0,1,1,329,33.2a233.55,233.55,0,0,0-25.2-6.62,236.89,236.89,0,0,0-47.25-4.75C126.91,21.83,21.44,127.3,21.44,256.94S126.91,492.06,256.56,492.06,491.67,386.59,491.67,256.94a235.44,235.44,0,0,0-27.62-110.65,8.47,8.47,0,0,1,14.95-8,252.5,252.5,0,0,1,29.61,118.63C508.61,395.93,395.54,509,256.56,509Z" transform="translate(-4.5 -4.89)"/><path d="M427.3,91.7a8.41,8.41,0,0,1-5.94-2.44,236.27,236.27,0,0,0-19-16.78c-5.07-4-10.37-7.87-15.76-11.45A8.47,8.47,0,1,1,396,46.92c5.78,3.85,11.46,8,16.88,12.28a253.68,253.68,0,0,1,20.38,18A8.47,8.47,0,0,1,427.3,91.7Z" transform="translate(-4.5 -4.89)"/><path d="M380.64,170.47A9.54,9.54,0,0,0,370,167.56L128.83,254.71a13.52,13.52,0,0,0-3,23.88L158.61,301a14.24,14.24,0,0,0,14.65.84l35.27-18.61a3.34,3.34,0,0,1,3.56,5.63l-22.77,17a14.18,14.18,0,0,0-5.71,11.39v38.63a11.32,11.32,0,0,0,17.56,9.43l24.32-16.14a3.32,3.32,0,0,1,3.72,0l23.9,16.29a13.57,13.57,0,0,0,7.66,2.36,13.34,13.34,0,0,0,2.74-.28,13.68,13.68,0,0,0,8.78-6.13L381.4,181.52A9.55,9.55,0,0,0,380.64,170.47Z" transform="translate(-4.5 -4.89)"/></svg>