<svg id="Layer_1" data-name="Layer 1" xmlns="http://www.w3.org/2000/svg" viewBox="0 0 170.86 170.86"><defs><style>.cls-1{fill:#ffe7f0;}.cls-2{fill:#f96294;}.cls-3{fill:#ff3378;}.cls-4{fill:#f92174;}.cls-5{fill:#f98fa8;fill-rule:evenodd;}</style></defs><rect class="cls-1" width="170.86" height="170.86" rx="19.84"/><path class="cls-2" d="M38.37,100.06A55.22,55.22,0,1,1,102,145.33a55.22,55.22,0,0,1-63.63-45.27" transform="translate(-5.43 -5.43)"/><path class="cls-3" d="M46.61,98.67a46.86,46.86,0,1,1,54,38.42A46.86,46.86,0,0,1,46.61,98.67Z" transform="translate(-5.43 -5.43)"/><path class="cls-4" d="M110.35,47.36c11,8.89,17,20,18.56,29.17,7.45,44.15-32.88,61.11-70.84,45.75a46.87,46.87,0,1,0,52.28-74.92" transform="translate(-5.43 -5.43)"/><path class="cls-5" d="M68.87,88v.06H74c0,1-.09,2-.09,3s.1,1.91.12,2.87H70.35c-.11.47-1,2.69-1.27,3.49a1.55,1.55,0,0,1-.21.49v0h5.78c.12.29.59,2.36,1,3.42a23,23,0,0,0,3.89,7.09,19.61,19.61,0,0,0,2.16,2.22,17.56,17.56,0,0,0,9.09,4.14c.34,0,1.82.17,2,.25h2.61a19.71,19.71,0,0,0,9-3,17.72,17.72,0,0,0,1.7-1.34c.41-.31.24-.22.49-.47a14.72,14.72,0,0,0,1.46-1.57,15,15,0,0,0,2.77-6.19c.12-.55.22-1.1.29-1.68,0-.37.11-1.56.18-1.78v-.8h-8.77a9.31,9.31,0,0,1-2.75,6.11A8.8,8.8,0,0,1,97,106.09c-3.11,1.19-7.79.4-10.11-2.15l-.28-.3A13.09,13.09,0,0,1,84,98H94l1.46-4H83.36a29.87,29.87,0,0,1,0-5.83H94l1.46-4H84.16a14.34,14.34,0,0,1,1.31-3.14,11.72,11.72,0,0,1,3-3.63,8.64,8.64,0,0,1,10-.48,8.93,8.93,0,0,1,3.06,3.54,9.36,9.36,0,0,1,.6,1.61c.22.81.24,1.56.32,1.85h8.74V83a21.5,21.5,0,0,0-1.49-6.69,12.44,12.44,0,0,0-1.48-2.6,21.88,21.88,0,0,0-1.91-2.14c-.32-.28-.62-.54-.93-.79-4-3.58-14.7-6.37-23,0a11.76,11.76,0,0,0-1.25,1c-.46.46-1.31,1.17-1.7,1.67-.17.21-.33.36-.52.59a19.07,19.07,0,0,0-2.22,3.37,21.85,21.85,0,0,0-1.84,4.85c-.08.33-.32,1.59-.41,1.79H70.35c-.16.61-.5,1.39-.73,2l-.54,1.48a1.49,1.49,0,0,1-.21.48" transform="translate(-5.43 -5.43)"/></svg>