<svg xmlns="http://www.w3.org/2000/svg" viewBox="0 0 1718.23 1316.99"><defs><style>.cls-1,.cls-17{opacity:0.4;}.cls-2{fill:#ffd4e4;}.cls-3{fill:#ffc9da;}.cls-4{fill:#fff;}.cls-5{fill:#ff3378;}.cls-6{fill:#ffd4e1;opacity:0.6;}.cls-7{fill:#ffc9d8;}.cls-8{fill:#f5f5ff;}.cls-9{fill:#ffd4dc;}.cls-10{fill:#ffc9e3;}.cls-11,.cls-20{fill:#1b1b43;}.cls-12{fill:#e5e5e5;}.cls-13{fill:#ffa635;}.cls-14{fill:#ffe9b4;}.cls-15{fill:#ffbc96;}.cls-16{fill:#d28572;}.cls-17{fill:#fe5b52;}.cls-18{fill:#bbe8b8;}.cls-19{fill:#7cb9fc;}.cls-20{opacity:0.1;}</style></defs><g id="OBJECTS"><g class="cls-1"><path class="cls-2" d="M1867.63,1133.55c25.51-161.73,46.06-337.48-58.73-478.88-31.44-42.41-71.77-84.95-121.93-105.42-63-25.7-130-32.24-197.86-31.53a1178.92,1178.92,0,0,0-370.39,63.83c-86,29.57-170.19,69.54-261.15,75.63-154.05,10.32-311.51-77.7-457.79-29.56-77.69,25.58-138.93,87.69-175,159.35s-49.11,152.37-52.32,232.09c-9.75,242.25,55.31,498.79,200,696h1274c28.16-48,51-98.7,70.87-140.4C1783,1436.59,1843.86,1284.19,1867.63,1133.55Z" transform="translate(-170 -399.26)"/></g><rect class="cls-3" x="736.23" y="879.47" width="117.52" height="46.05" rx="7.19"/><rect class="cls-3" x="871.86" y="879.47" width="117.52" height="46.05" rx="7.19"/><rect class="cls-3" x="933.32" y="939.07" width="117.52" height="46.05" rx="7.19"/><rect class="cls-3" x="797.48" y="938.27" width="117.52" height="46.05" rx="7.19"/><rect class="cls-3" x="736.65" y="997.07" width="117.52" height="46.05" rx="7.19"/><rect class="cls-4" x="276.32" y="19.08" width="862.3" height="605.63"/><path class="cls-5" d="M1380.83,1036.51H516v-608h864.8Zm-862.3-2.42h859.8V430.88H518.53Z" transform="translate(-170 -399.26)"/><rect class="cls-6" x="348.43" y="30.4" width="860" height="27.18"/><rect class="cls-4" x="309.68" y="1.21" width="937.5" height="32.71"/><path class="cls-5" d="M1418.43,434.39h-940V399.26h940ZM480.93,432h935V401.68h-935Z" transform="translate(-170 -399.26)"/><ellipse class="cls-7" cx="683.13" cy="212.65" rx="5" ry="4.83"/><polygon class="cls-7" points="682 213.19 659.22 168.55 567.08 168.55 567.08 166.13 660.78 166.13 684.25 212.12 682 213.19"/><rect class="cls-7" x="406.88" y="167.97" width="19.11" height="36.22"/><rect class="cls-7" x="438.19" y="150.29" width="19.11" height="53.9"/><rect class="cls-7" x="469.51" y="160.88" width="19.11" height="43.31"/><rect class="cls-7" x="500.82" y="137.71" width="19.11" height="66.48"/><rect class="cls-7" x="532.14" y="107.45" width="19.11" height="96.75"/><ellipse class="cls-7" cx="878.13" cy="207.21" rx="5" ry="4.83"/><polygon class="cls-7" points="879.25 207.73 877 206.69 903.59 152.84 988.13 152.84 988.13 155.26 905.16 155.26 879.25 207.73"/><path class="cls-7" d="M1298.92,588.26H1182.27a12.84,12.84,0,0,1-13-12.6V510.17a12.84,12.84,0,0,1,13-12.6h116.65a12.84,12.84,0,0,1,13,12.6v65.49A12.84,12.84,0,0,1,1298.92,588.26ZM1182.27,500a10.39,10.39,0,0,0-10.54,10.19v65.49a10.39,10.39,0,0,0,10.54,10.19h116.65a10.39,10.39,0,0,0,10.55-10.19V510.17A10.39,10.39,0,0,0,1298.92,500Z" transform="translate(-170 -399.26)"/><rect class="cls-7" x="1020.6" y="117.68" width="100" height="2.42"/><rect class="cls-7" x="1020.6" y="134.19" width="72.08" height="2.42"/><rect class="cls-7" x="1020.6" y="150.7" width="87.92" height="2.42"/><rect class="cls-7" x="1020.6" y="167.21" width="100" height="2.42"/><ellipse class="cls-7" cx="876.46" cy="418.25" rx="5" ry="4.83"/><polygon class="cls-7" points="986.46 472.63 901.92 472.63 875.33 418.77 877.59 417.73 903.5 470.21 986.46 470.21 986.46 472.63"/><path class="cls-7" d="M1257.15,916.83a74.91,74.91,0,0,1-28.39-5.59c-36.8-15.13-54-56.36-38.42-91.91s58.28-52.21,95.08-37.11a71,71,0,0,1,40.51,42.55,67.76,67.76,0,0,1-2.12,49.33,69.7,69.7,0,0,1-15.94,22.67A73.77,73.77,0,0,1,1257.15,916.83Zm0-137.77c-27.26,0-53.23,15.48-64.55,41.21-15.07,34.33,1.57,74.14,37.09,88.74a71.71,71.71,0,0,0,76.39-14,67.24,67.24,0,0,0,15.39-21.89h0a65.38,65.38,0,0,0,2-47.63,68.54,68.54,0,0,0-39.11-41.08A71.68,71.68,0,0,0,1257.19,779.06Z" transform="translate(-170 -399.26)"/><path class="cls-7" d="M1322.66,873.62A68.42,68.42,0,0,1,1307,895.9l-49.31-48.5,67.06-22.25A66.32,66.32,0,0,1,1322.66,873.62Z" transform="translate(-170 -399.26)"/><ellipse class="cls-7" cx="682.08" cy="417.65" rx="5" ry="4.83"/><polygon class="cls-7" points="656.62 472.02 572.08 472.02 572.08 469.61 655.04 469.61 680.96 417.13 683.21 418.17 656.62 472.02"/><path class="cls-7" d="M716.25,813.29H589.58V738.38H716.25Zm-124.17-2.42H713.75V740.79H592.08Z" transform="translate(-170 -399.26)"/><rect class="cls-8" x="433.44" y="358.24" width="98.96" height="2.42"/><rect class="cls-8" x="433.44" y="375.36" width="98.96" height="2.42"/><rect class="cls-8" x="433.44" y="392.48" width="98.96" height="2.42"/><polygon class="cls-7" points="444.36 400.12 435.55 383.68 430.25 398.81 427.88 398.03 435.07 377.52 444.39 394.91 463.92 359.28 476.29 389.78 486.16 367.24 505.07 386.74 525.17 353.11 527.33 354.32 505.55 390.77 486.96 371.6 476.21 396.18 463.58 365.06 444.36 400.12"/><path class="cls-7" d="M716.25,919.61H589.58V844.7H716.25ZM592.08,917.2H713.75V847.12H592.08Z" transform="translate(-170 -399.26)"/><rect class="cls-8" x="433.44" y="464.57" width="98.96" height="2.42"/><rect class="cls-8" x="433.44" y="481.69" width="98.96" height="2.42"/><rect class="cls-8" x="433.44" y="498.8" width="98.96" height="2.42"/><polygon class="cls-7" points="506.25 501.37 489.38 487.89 473.05 501.2 462.87 482.38 453.86 500.69 432.04 464.27 434.21 463.06 453.64 495.51 462.76 476.97 473.82 497.41 489.37 484.75 505 497.24 516.86 461.89 529.62 499.23 527.25 499.99 516.89 469.66 506.25 501.37"/><path class="cls-9" d="M255.09,1047.22s-21.34-37.79,147.41-29.34l93.75,293.61-158.75-2.42Z" transform="translate(-170 -399.26)"/><polygon class="cls-9" points="141.67 1315.87 117.5 1315.87 175 916.34 206.67 916.34 141.67 1315.87"/><polygon class="cls-9" points="423.33 1315.87 447.5 1315.87 390 916.34 358.33 916.34 423.33 1315.87"/><rect class="cls-10" x="180.34" y="899.34" width="241.32" height="24.16"/><path class="cls-10" d="M350.34,1298.6l-71.83-257.27a12.19,12.19,0,0,0-16.07-7.85h0a11.61,11.61,0,0,0-7.35,13.74l65.32,252.54c3.44,13.34,15.72,22.77,29.93,23h0Z" transform="translate(-170 -399.26)"/><polygon class="cls-9" points="1531.42 1315.78 1554.02 1315.78 1500.26 916.25 1470.65 916.25 1531.42 1315.78"/><polygon class="cls-9" points="1268.1 1315.78 1245.51 1315.78 1299.26 916.25 1328.87 916.25 1268.1 1315.78"/><rect class="cls-10" x="1401.82" y="1298.51" width="335.88" height="24.16" transform="translate(2969.52 2221.92) rotate(180)"/><path class="cls-9" d="M1737.71,1298.51h-336c34.54-63.3,51.48-148.54,59.4-243.54,1.81-21.78,20.67-38.55,43.27-38.55H1635c22.68,0,41.58,16.87,43.29,38.73C1685.86,1153,1703.18,1238,1737.71,1298.51Z" transform="translate(-170 -399.26)"/><path class="cls-11" d="M473.44,817.62s-95.11,54.07-37.61,90.31l50.84,18.53,16.66-76.52C498.08,830.17,489.75,816.26,473.44,817.62Z" transform="translate(-170 -399.26)"/><path class="cls-11" d="M471.08,823.81a140.3,140.3,0,0,0-14.24,5.89,146.08,146.08,0,0,0-13.54,7.22c-8.7,5.28-16.94,11.49-23.09,19.35a46.15,46.15,0,0,0-7.3,12.79,35.42,35.42,0,0,0-2,14.39,42.07,42.07,0,0,0,3.37,14.31,61.19,61.19,0,0,0,3.16,6.78c1.17,2.21,2.61,4.29,3.91,6.45l-.8.54c-6.05-8.14-11.06-17.58-11.82-27.94a36.26,36.26,0,0,1,1.93-15.27,46.39,46.39,0,0,1,7.6-13.5c6.52-8.12,14.95-14.5,23.95-19.64a136.2,136.2,0,0,1,28.59-12.27Z" transform="translate(-170 -399.26)"/><path class="cls-12" d="M812,1655.86c-5.87-4.84-11.63-9.71-17.12-15q-7.06-6.76-13.74-13.88c-1.41-1.5-4.67-3.87-5.39-5.84l-52.2,17,18.23,76.9,10,.07.91-36c16,7.63,32.72,14.73,50.36,17.89,10.87,2,25,2.77,35.4-1.54C864.43,1684.67,819,1661.58,812,1655.86Z" transform="translate(-170 -399.26)"/><polygon class="cls-13" points="594.42 1190.58 546.3 1208.11 553.59 1238.88 605.79 1221.92 594.42 1190.58"/><path class="cls-5" d="M555,1150.79l120.33,38.45a83.18,83.18,0,0,1,46.81,37.36h0a79.13,79.13,0,0,1,9.94,29.05l46.67,347-72.5,12.09L607.5,1262l-133.75-59.2,23.75-64Z" transform="translate(-170 -399.26)"/><path class="cls-12" d="M522.07,1695.57c-18.28-7.14-32.29-54.52-32.29-54.52l-53.17-14.25L406.15,1699l8.17,5.64,22.17-28.95,54.07,39.48h42.79S540.35,1702.71,522.07,1695.57Z" transform="translate(-170 -399.26)"/><polygon class="cls-13" points="329.12 1209.83 279.33 1197.42 266.61 1227.53 319.78 1241.79 329.12 1209.83"/><path class="cls-5" d="M627,1302.23,510.82,1620l-13.75-4-49.84-14.36-6.41-1.83L503.32,1301c-70.82,16.92-110-1.54-124.14-32.23-4-8.65-5.78-18.68-6.13-29.17-1.35-42.31,21.13-92.45,21.13-92.45l67.07,4.83,123.37,54.13a79.37,79.37,0,0,1,30.53,23.49,76,76,0,0,1,15.38,34.67A74.51,74.51,0,0,1,627,1302.23Z" transform="translate(-170 -399.26)"/><path class="cls-14" d="M458.05,888.48,382.5,1057.15l20,30.81s-20.32,44.5-31.88,75.52c0,0,133.55,36.45,248.55,8.66L600,1077.09l-8.12-145.6-47.93-42Z" transform="translate(-170 -399.26)"/><polygon class="cls-11" points="403.33 705.21 392.29 706.62 370.13 623.82 378.85 621.44 403.33 705.21"/><path class="cls-14" d="M694.28,1065.48a221.8,221.8,0,0,1-36.78-8.93L628.75,946c-5.45-20.95-21.63-37.72-42.88-44.42l-36.8-10.12a28.32,28.32,0,0,1-5.12-1.94L577.81,1110s58,5.63,99.69,6.65C676.51,1097.41,684.06,1075.28,694.28,1065.48Z" transform="translate(-170 -399.26)"/><path class="cls-15" d="M756.67,1061.78a72.69,72.69,0,0,0-35.42,4.43c-8.31,1.17-17.85.59-27-.73-7.72,11-21.83,33.44-20.84,52.69,8.71.21,31.1-.54,36.56-.91,31.56-2.11,60.62-33.53,60.62-33.53s23.13,22,25,11.78S777,1064.2,756.67,1061.78Z" transform="translate(-170 -399.26)"/><rect class="cls-4" x="348.33" y="704.24" width="136.48" height="11.09"/><path class="cls-15" d="M473.75,1113.94s58.44,7.85,70.31-2.72c0,0,14.06.3,17.5-7.55a21.57,21.57,0,0,0,7.82-10s5-7.85,3.43-13l-19.69-9.66s-.07-.66-.25-1.63a9.33,9.33,0,0,0-9.15-7.54l-34-.44a25.93,25.93,0,0,0-9.08,1.52l-35,12.62Z" transform="translate(-170 -399.26)"/><path class="cls-14" d="M430,977.41l-35,75.51,110,8.46c-32.5,15.1-31.25,52.56-31.25,52.56L374,1116.45a46.16,46.16,0,0,1-34.13-13.7,43.07,43.07,0,0,1-12.4-30.11,42.17,42.17,0,0,1,2.3-13.75L370.68,939.4a60.9,60.9,0,0,1,43.12-39l39.95-10c1.5-.6,2.95-1.25,4.3-1.93Z" transform="translate(-170 -399.26)"/><path class="cls-16" d="M569.14,1094.11a149.56,149.56,0,0,1-13.88-6.61,127.71,127.71,0,0,1-13.15-7.88l.47-.83a128.89,128.89,0,0,1,13.88,6.61,151,151,0,0,1,13.15,7.89Z" transform="translate(-170 -399.26)"/><path class="cls-16" d="M561.38,1104.11a124.48,124.48,0,0,1-13.09-4.31,102.86,102.86,0,0,1-12.53-5.66l.36-.88a102.81,102.81,0,0,1,13.09,4.31,122.5,122.5,0,0,1,12.53,5.66Z" transform="translate(-170 -399.26)"/><path class="cls-16" d="M543.85,1111.65a32.41,32.41,0,0,1-6.58-2.29,26.48,26.48,0,0,1-5.92-3.6l.43-.85a26.72,26.72,0,0,1,6.58,2.29,31.11,31.11,0,0,1,5.92,3.6Z" transform="translate(-170 -399.26)"/><path class="cls-11" d="M390.83,1116.56a1.21,1.21,0,1,1,0-2.42l81.67-1.39c-.12-30.25,19.47-45.26,28-50.34l.07-1.46-.13,1.2-96.58-9.38,24.55-88.36a1.25,1.25,0,0,1,1.53-.86,1.22,1.22,0,0,1,.88,1.49L407,1050.66l93.65,9.09a2.58,2.58,0,0,1,2.32,2,2.48,2.48,0,0,1-1.19,2.75c-8.27,4.94-27.43,19.63-26.79,49.45l0,1.22-84.17,1.43Z" transform="translate(-170 -399.26)"/><path class="cls-11" d="M606.87,1103.67a1.23,1.23,0,0,1-1.24-1.11l-12.5-142a1.25,1.25,0,0,1,2.49-.21l12.5,142a1.21,1.21,0,0,1-1.14,1.3Z" transform="translate(-170 -399.26)"/><path class="cls-11" d="M677.5,1121.19a1.25,1.25,0,0,1-1.23-1c-4.87-25.71,16.11-54.23,17-55.43a1.26,1.26,0,0,1,1.74-.27,1.18,1.18,0,0,1,.29,1.68c-.21.29-21.24,28.89-16.57,53.58a1.22,1.22,0,0,1-1,1.41Z" transform="translate(-170 -399.26)"/><ellipse class="cls-11" cx="351.88" cy="551.56" rx="6.88" ry="6.65"/><path class="cls-15" d="M544,889.54c-3,17.57-15.28,40.77-34.38,31.68-14-6.66-37.34-24.14-51.52-32.74,38.77-19.6,19.66-70.8,19.14-72.37L524.57,833s0,.29,0,.8a214.92,214.92,0,0,0,3.45,32.53c.35,1.71.72,3.38,1.13,5A27.82,27.82,0,0,0,544,889.54Z" transform="translate(-170 -399.26)"/><path class="cls-16" d="M528.05,866.35c-27.85-6.21-34.6-34.05-34.6-34.83l31.15,2.3A214.92,214.92,0,0,0,528.05,866.35Z" transform="translate(-170 -399.26)"/><path class="cls-15" d="M548.44,787.71s5,54.68-20.94,59.21c-25.49,4.45-54.06-29.3-54.06-29.3l4.37-50.45,29.07-18.42C527.51,756.83,541,768.11,548.44,787.71Z" transform="translate(-170 -399.26)"/><path class="cls-11" d="M474.69,806.74c13.75-4.53,18.75-16,22.19-31.71,5.28-24.16,41.24-4.84,51.56,12.68,0,0,5.62-48.93-46.25-48,0,0-60.31,2.11-42.19,63.73Z" transform="translate(-170 -399.26)"/><ellipse class="cls-15" cx="471.41" cy="810.37" rx="13.44" ry="17.42" transform="translate(-567.01 57.87) rotate(-37.68)"/><path class="cls-11" d="M538.54,799.39a3.34,3.34,0,1,0,3.34-3.22A3.29,3.29,0,0,0,538.54,799.39Z" transform="translate(-170 -399.26)"/><path class="cls-11" d="M512.34,800.06a3.34,3.34,0,1,0,3.34-3.22A3.28,3.28,0,0,0,512.34,800.06Z" transform="translate(-170 -399.26)"/><path class="cls-16" d="M530.36,820a1.21,1.21,0,0,1-.09-2.42,13.1,13.1,0,0,0,5.45-1.6,1.66,1.66,0,0,0,.79-1.49c0-2-2.63-5.13-6-7.3a1.18,1.18,0,0,1-.35-1.68,1.27,1.27,0,0,1,1.73-.33c3.49,2.24,7,6,7.12,9.25a4.05,4.05,0,0,1-1.81,3.5c-2.45,1.73-6.57,2.05-6.74,2.06Z" transform="translate(-170 -399.26)"/><path class="cls-11" d="M547.89,792.33a25,25,0,0,0-3.09-.64,13.82,13.82,0,0,0-2.87-.05,21.29,21.29,0,0,0-2.88.54c-1,.25-2,.61-3.23.89h-.06a.78.78,0,0,1-.94-.56.75.75,0,0,1,.09-.57,7.94,7.94,0,0,1,2.79-2.67,9.07,9.07,0,0,1,3.92-1.23,8.78,8.78,0,0,1,4.13.69,6.89,6.89,0,0,1,3.13,2.54.71.71,0,0,1-.24,1,.75.75,0,0,1-.58.09Z" transform="translate(-170 -399.26)"/><path class="cls-11" d="M507.14,792.23a9.55,9.55,0,0,1,3.51-2.72,10.72,10.72,0,0,1,4.53-1,8.76,8.76,0,0,1,4.62,1.22,7.83,7.83,0,0,1,3.11,3.25.72.72,0,0,1-.33,1,.81.81,0,0,1-.63,0l-.1,0a29.15,29.15,0,0,0-3.45-1.34,10.94,10.94,0,0,0-3.24-.5,25,25,0,0,0-7.12,1.27l-.09,0a.75.75,0,0,1-.93-.5A.73.73,0,0,1,507.14,792.23Z" transform="translate(-170 -399.26)"/><ellipse class="cls-17" cx="335.69" cy="414.49" rx="8.02" ry="7.7"/><path class="cls-11" d="M526.21,829.49a12.2,12.2,0,0,1-7.84-2.53,1.17,1.17,0,0,1-.07-1.7,1.28,1.28,0,0,1,1.76-.08c.17.15,3.78,3.18,10.36,1.25a1.26,1.26,0,0,1,1.56.81,1.2,1.2,0,0,1-.84,1.5A17.3,17.3,0,0,1,526.21,829.49Z" transform="translate(-170 -399.26)"/><path class="cls-11" d="M479.38,814.9a1.25,1.25,0,0,1-1.15-.73c-.21-.46-5.25-11.34-13.48-8a1.26,1.26,0,0,1-1.63-.65,1.18,1.18,0,0,1,.67-1.58c8.39-3.39,14.62,4.59,16.73,9.29a1.19,1.19,0,0,1-.64,1.59A1.31,1.31,0,0,1,479.38,814.9Z" transform="translate(-170 -399.26)"/><path class="cls-11" d="M518,924.48a20.72,20.72,0,0,1-8.93-2.17c-8.9-4.23-21.16-12.53-33-20.56-6.87-4.66-13.37-9.06-18.61-12.25a1.17,1.17,0,0,1-.4-1.66,1.27,1.27,0,0,1,1.72-.38c5.31,3.22,11.83,7.63,18.73,12.31,11.78,8,23.95,16.23,32.69,20.37,5.14,2.45,10,2.54,14.58.29,9.59-4.77,15.95-19,18-31.08a1.22,1.22,0,0,1,1.43-1,1.2,1.2,0,0,1,1,1.39c-2.16,12.64-9,27.69-19.32,32.84A17.61,17.61,0,0,1,518,924.48Z" transform="translate(-170 -399.26)"/><path class="cls-15" d="M1440.62,1189.46q-2.17,21.48-5,43.73c-15.15,122.59-42.8,260.69-75,404.52-46.87,20.35-71.87,11.48-71.87,11.48,33.75-163.11,47.5-448.26,47.5-448.26Z" transform="translate(-170 -399.26)"/><path class="cls-12" d="M1288.75,1649.19s-70,39.27-68.75,65.25h93.12l20.63-15.11,5,15.71h27.5s6.25-24.16-5.63-77.33C1313.75,1658.05,1288.75,1649.19,1288.75,1649.19Z" transform="translate(-170 -399.26)"/><path class="cls-16" d="M1440.62,1189.46q-2.17,21.48-5,43.73c-54.1-3.6-99.4-32.26-99.4-32.26Z" transform="translate(-170 -399.26)"/><path class="cls-15" d="M1609.58,1637.71l-39.58,29-27.35-17.52s-41-323.44-70.82-434.17c-2.36-8.72-4.63-16.12-6.83-21.94l96.25,14.5q3.55,15.74,6.78,31.49C1595.1,1371,1605,1504.18,1609.58,1637.71Z" transform="translate(-170 -399.26)"/><path class="cls-12" d="M1542.66,1649.19s-65.16,39.27-64,65.25h86.69l19.2-15.11,4.66,15.71h25.6s5.81-24.16-5.24-77.33C1565.93,1658.05,1542.66,1649.19,1542.66,1649.19Z" transform="translate(-170 -399.26)"/><path class="cls-16" d="M1568,1239.07c-47.45-.63-95.53-23.64-95.53-23.64l-.67-.41c-2.36-8.72-4.63-16.12-6.83-21.94l96.25,14.5Q1564.8,1223.32,1568,1239.07Z" transform="translate(-170 -399.26)"/><path class="cls-16" d="M1323.41,1389.4l31.88,4.83c1.57.24,2.25-2.09.66-2.33l-31.87-4.83c-1.57-.24-2.25,2.08-.67,2.33Z" transform="translate(-170 -399.26)"/><path class="cls-16" d="M1511.25,1405.84l29.37.6a1.21,1.21,0,1,0,0-2.41l-29.37-.61a1.21,1.21,0,0,0,0,2.42Z" transform="translate(-170 -399.26)"/><path class="cls-11" d="M1189.38,750.26s7.91-38.06,68.95-52.56l-30.21,53.77Z" transform="translate(-170 -399.26)"/><path class="cls-15" d="M1233.5,662.76c-1,7.2-3.54,15.1-7.7,15.1s-5.47-6.49-5.12-15.4c.56-14.71,3-17.22,7.18-17.22S1235.38,648.41,1233.5,662.76Z" transform="translate(-170 -399.26)"/><path class="cls-11" d="M1189.61,627.42l8.45,9.37,86.09,33.52a6,6,0,0,0,7.72-3.17,5.67,5.67,0,0,0-3.29-7.47l-86.08-33.53Z" transform="translate(-170 -399.26)"/><path class="cls-15" d="M1258.33,697.7l-12.5,27.79-35.41,19.14a168.61,168.61,0,0,1-8.09-26,173,173,0,0,1-4.63-39l35.22-13.71.83-17.71c1.87-24.45,12.1-14.64,14.7,2.71C1253.25,683.18,1258.33,697.7,1258.33,697.7Z" transform="translate(-170 -399.26)"/><path class="cls-16" d="M1258.33,697.7l-12.5,27.79-35.41,19.14a168.61,168.61,0,0,1-8.09-26Z" transform="translate(-170 -399.26)"/><path class="cls-15" d="M1222.48,666c-1.07,7.21-4,15.11-8.76,15.11s-6.24-6.5-5.85-15.41c.64-14.7,3.45-17.22,8.18-17.22S1224.63,651.63,1222.48,666Z" transform="translate(-170 -399.26)"/><path class="cls-15" d="M1211.21,672.93c-1.18,7.2-4.43,15.1-9.63,15.1s-6.84-6.49-6.41-15.4c.7-14.71,3.78-17.22,9-17.22S1213.56,658.58,1211.21,672.93Z" transform="translate(-170 -399.26)"/><path class="cls-16" d="M1222.48,681.82c-1.69-.16-3.59-2.09-4.45-9.14a1.26,1.26,0,0,1,.84-1.41,1,1,0,0,1,1.13,1c.58,4.77,1.74,7.43,3,7.17,3.09-.66,7.87-12.87,7-22.61a1.24,1.24,0,0,1,.87-1.38,1,1,0,0,1,1.1,1c1,10.13-3.92,24.35-8.68,25.36A2.79,2.79,0,0,1,1222.48,681.82Z" transform="translate(-170 -399.26)"/><path class="cls-16" d="M1210.8,685.24a4.64,4.64,0,0,1-3.16-1.84c-2.17-2.72-2.47-7.82-.91-15.18a1.17,1.17,0,0,1,1.39-.93,1.18,1.18,0,0,1,.89,1.42c-1.81,8.54-.54,11.85.38,13.06a2.47,2.47,0,0,0,1.7,1.07,4.79,4.79,0,0,0,3.69-1.67c4.42-4.83,3.76-17.85,3.75-18a1.21,1.21,0,0,1,1.1-1.29,1.18,1.18,0,0,1,1.23,1.12c0,.58.72,14.2-4.4,19.8a7,7,0,0,1-5.39,2.43A1.38,1.38,0,0,1,1210.8,685.24Z" transform="translate(-170 -399.26)"/><path class="cls-16" d="M1197.81,686.75l-.54-.06a3.93,3.93,0,0,1-2.67-1.77c-2.63-3.87-1-13.11-.77-14.15a1.23,1.23,0,0,1,1.38-1,1.19,1.19,0,0,1,.92,1.4c-.49,2.55-1.37,9.73.39,12.31a1.62,1.62,0,0,0,1.13.78c3.56.54,6.08-1.72,8.24-7.35a1.16,1.16,0,0,1,1.51-.69,1.21,1.21,0,0,1,.65,1.56C1207.14,680.21,1204.39,687.37,1197.81,686.75Z" transform="translate(-170 -399.26)"/><path class="cls-4" d="M1578.75,806.44l-84.37-82.16-61.88,1.21-66,228.91,214.82,10.16C1584.05,905.25,1583.78,851.85,1578.75,806.44Z" transform="translate(-170 -399.26)"/><path class="cls-18" d="M1366.55,954.4,1350,1011.84c0,72.5-13.75,188.49-13.75,188.49,86.25,30.21,225,7.25,225,7.25,9-87.47,16.81-169.76,20.12-243Z" transform="translate(-170 -399.26)"/><path class="cls-11" d="M1465.94,769.83q-15.95,0-31.39-9c-.71-.41-1.45-.84-1.66-.92a1.11,1.11,0,0,1-1.13-1.19,1.31,1.31,0,0,1,1.36-1.19c.61,0,1.14.31,2.72,1.24,20.29,11.86,41.45,11.51,62.89-1.07a1.28,1.28,0,0,1,1.71.41,1.19,1.19,0,0,1-.42,1.66C1488.56,766.47,1477.17,769.83,1465.94,769.83Z" transform="translate(-170 -399.26)"/><path class="cls-11" d="M1461.72,1216.81c-77.71,0-125.22-15.12-125.87-15.34a1.19,1.19,0,0,1-.78-1.53,1.27,1.27,0,0,1,1.58-.76c.89.3,90.06,28.65,224.4,7.21a1.24,1.24,0,0,1,1.43,1,1.21,1.21,0,0,1-1,1.39A632.49,632.49,0,0,1,1461.72,1216.81Z" transform="translate(-170 -399.26)"/><path class="cls-19" d="M1432.5,725.49l-34.13.28a63.64,63.64,0,0,0-26.93,6.22L1285,773.42l-26.67-75.72-68.95,52.56,41.4,82.9A43.9,43.9,0,0,0,1267.34,857h0a45.15,45.15,0,0,0,22.78-4.51l65.5-32.17s4.38,139.55-27.5,221.11c0,0,66.26,19.33,112.5-.61C1440.62,1040.84,1471.88,811.27,1432.5,725.49Z" transform="translate(-170 -399.26)"/><path class="cls-19" d="M1670.83,987.68c-8.75-82.17-37.19-164.79-50.86-201a73.4,73.4,0,0,0-22.87-31.28h0a77.09,77.09,0,0,0-31.17-15l-71.55-16.2C1484.55,819.22,1496,930,1510,1042.65c0,0,107.5-4.83,141.88-25.37Z" transform="translate(-170 -399.26)"/><path class="cls-11" d="M1594.17,882.56a1.24,1.24,0,0,1-1.24-1l-13.33-82.16a1.21,1.21,0,0,1,1-1.38,1.25,1.25,0,0,1,1.43,1l13.33,82.16a1.22,1.22,0,0,1-1,1.39Z" transform="translate(-170 -399.26)"/><polygon class="cls-4" points="1466.72 615.93 1365.9 582.67 1409.81 460.38 1510.63 493.64 1466.72 615.93"/><path class="cls-11" d="M1637.49,1016.72l-103.18-34,.41-1.14L1579,858.12l103.19,34-.41,1.15Zm-100-35.54,98.45,32.48,43.1-120-98.45-32.48Z" transform="translate(-170 -399.26)"/><line class="cls-4" x1="1427.08" y1="502.23" x2="1479.17" y2="518.74"/><path class="cls-11" d="M1649.17,919.21a1.32,1.32,0,0,1-.39-.06l-52.09-16.51a1.21,1.21,0,0,1-.8-1.53,1.27,1.27,0,0,1,1.58-.77l52.09,16.51a1.21,1.21,0,0,1,.8,1.53A1.26,1.26,0,0,1,1649.17,919.21Z" transform="translate(-170 -399.26)"/><line class="cls-4" x1="1429.38" y1="519.95" x2="1463.54" y2="530.42"/><path class="cls-11" d="M1633.54,930.89a1.31,1.31,0,0,1-.38-.06L1599,920.36a1.2,1.2,0,0,1-.82-1.52,1.25,1.25,0,0,1,1.57-.78l34.17,10.47a1.2,1.2,0,0,1,.81,1.52A1.24,1.24,0,0,1,1633.54,930.89Z" transform="translate(-170 -399.26)"/><polygon class="cls-11" points="1476.85 491.07 1446.5 481.01 1452.25 464.8 1482.6 474.85 1476.85 491.07"/><path class="cls-11" d="M1326.25,835.44a1.25,1.25,0,0,1-1.09-.62,1.19,1.19,0,0,1,.48-1.65l57.5-30.81a1.27,1.27,0,0,1,1.7.48,1.18,1.18,0,0,1-.48,1.64l-57.5,30.81A1.31,1.31,0,0,1,1326.25,835.44Z" transform="translate(-170 -399.26)"/><path class="cls-15" d="M1674.58,1014.66s15-37.45-38.33-65.65c0,0-12.92-4.83-3.33,14.1,0,0-20.42-22.55-15.42,3.63,0,0-16.25-15.71-7.92,14.09,0,0-16.25-8.46-6.25,27S1653.33,1057.35,1674.58,1014.66Z" transform="translate(-170 -399.26)"/><path class="cls-16" d="M1651.67,986.47a1.25,1.25,0,0,1-1-.54c-6.54-9.47-18.51-21.87-18.63-22a1.19,1.19,0,0,1,.06-1.71,1.29,1.29,0,0,1,1.77,0c.12.13,12.23,12.67,18.88,22.31a1.19,1.19,0,0,1-.35,1.68A1.32,1.32,0,0,1,1651.67,986.47Z" transform="translate(-170 -399.26)"/><path class="cls-16" d="M1632.92,991.3a1.25,1.25,0,0,1-1.17-.77c-4.85-12.11-14.65-22.47-14.75-22.57a1.18,1.18,0,0,1,.07-1.71,1.29,1.29,0,0,1,1.77.07c.41.43,10.22,10.78,15.24,23.34a1.22,1.22,0,0,1-1.16,1.64Z" transform="translate(-170 -399.26)"/><path class="cls-16" d="M1617.08,999a1.24,1.24,0,0,1-1.25-1.13c-.39-6.05-7.22-16.23-7.29-16.33a1.18,1.18,0,0,1,.36-1.67,1.28,1.28,0,0,1,1.73.35c.3.44,7.27,10.82,7.7,17.5a1.22,1.22,0,0,1-1.17,1.28Z" transform="translate(-170 -399.26)"/><path class="cls-11" d="M1520.42,889a1.24,1.24,0,0,1-1.25-1.07c-.78-6.89-1.71-14.22-2.67-21.73-3.29-25.89-6.7-52.67-5.67-72.3l.07-.32,10.23-30.08-19.28-30.94a1.18,1.18,0,0,1,.42-1.66,1.28,1.28,0,0,1,1.72.41l19.88,31.89-10.55,31c-1,19.42,2.39,46,5.66,71.73,1,7.52,1.89,14.85,2.68,21.75a1.22,1.22,0,0,1-1.11,1.34Z" transform="translate(-170 -399.26)"/><path class="cls-11" d="M1425.42,890.21a1.24,1.24,0,0,1-.27,0,1.2,1.2,0,0,1-1-1.43c7-30.85,8.19-62.2,3.36-88.31l-19.82-30.58,19.47-38.06a1.29,1.29,0,0,1,1.68-.55,1.19,1.19,0,0,1,.56,1.62l-18.85,36.85L1430,799.78c4.93,26.47,3.75,58.24-3.34,89.48A1.24,1.24,0,0,1,1425.42,890.21Z" transform="translate(-170 -399.26)"/><path class="cls-15" d="M1494.38,724.28c-11.26,21.75-40,31.42-61.88,1.21,1.58-5.85,3.45-11.87,5.27-18,3.46-11.77,6.65-24.09,6.93-37,0-2.25,0-4.52-.12-6.79l46.67,4.22Z" transform="translate(-170 -399.26)"/><path class="cls-16" d="M1480.83,675.35s-10.81,23.29-43.06,32.11c3.46-11.77,6.65-24.09,6.93-37Z" transform="translate(-170 -399.26)"/><path class="cls-15" d="M1505,621.17l-15.83,50.75s-26.67,23.85-52.92,11.69c-7.1-3.31-9.9-13.14-10.48-24.67-.17-3.19-.17-6.53,0-9.88.77-19.94,5.92-40.77,5.92-40.77l39.16-18.92Z" transform="translate(-170 -399.26)"/><path class="cls-11" d="M1501.25,651.38s-39.58-23-43.33-45.51c0,0-8.44,1.92-27.61,8.76,0,0,2.81-33.68,41.25-37.45,35.85-3.52,78.86,24.46,88.44,99.37L1493.33,711,1490,654.61Z" transform="translate(-170 -399.26)"/><ellipse class="cls-15" cx="1489.58" cy="651.69" rx="18.23" ry="13.88" transform="translate(80.35 1304.96) rotate(-63.97)"/><path class="cls-11" d="M1484,654.24a1.3,1.3,0,0,1-.65-.18,1.18,1.18,0,0,1-.41-1.66c.06-.1,6.23-9.69,15.93-7a1.2,1.2,0,0,1,.86,1.5,1.25,1.25,0,0,1-1.54.83c-7.89-2.17-13.07,5.88-13.12,6A1.25,1.25,0,0,1,1484,654.24Z" transform="translate(-170 -399.26)"/><path class="cls-11" d="M1436,639.6a3.33,3.33,0,1,1-3.33-3.22A3.27,3.27,0,0,1,1436,639.6Z" transform="translate(-170 -399.26)"/><path class="cls-11" d="M1460,640.11a3.34,3.34,0,1,1-3.33-3.23A3.27,3.27,0,0,1,1460,640.11Z" transform="translate(-170 -399.26)"/><path class="cls-16" d="M1443.65,660.45h-.11c-.18,0-4.33-.38-6.79-2.35a4.59,4.59,0,0,1-1.75-3.81c.09-3.61,3.72-7.87,7.06-10.31a1.29,1.29,0,0,1,1.75.24,1.17,1.17,0,0,1-.25,1.69c-3.4,2.48-6,6.11-6.06,8.44a2.17,2.17,0,0,0,.85,1.89c1.85,1.48,5.37,1.8,5.4,1.8a1.21,1.21,0,0,1-.1,2.42Z" transform="translate(-170 -399.26)"/><path class="cls-11" d="M1442.71,670.41a1.21,1.21,0,0,1-.14-2.41c.07,0,7.07-.83,11.46-6a1.28,1.28,0,0,1,1.76-.16,1.18,1.18,0,0,1,.18,1.7c-5.06,6-12.8,6.84-13.12,6.88Z" transform="translate(-170 -399.26)"/><path class="cls-11" d="M1427,630.72a6.83,6.83,0,0,1,3.13-2.54,8.73,8.73,0,0,1,4.12-.69,9,9,0,0,1,3.92,1.23,7.86,7.86,0,0,1,2.79,2.67.74.74,0,0,1-.26,1,.79.79,0,0,1-.58.09h-.06c-1.21-.28-2.23-.64-3.24-.89a20.72,20.72,0,0,0-2.88-.54,13.83,13.83,0,0,0-2.87,0,25.41,25.41,0,0,0-3.09.64l-.16,0a.75.75,0,0,1-.91-.52A.67.67,0,0,1,1427,630.72Z" transform="translate(-170 -399.26)"/><path class="cls-11" d="M1465.33,633.17a25,25,0,0,0-7-1.85,11,11,0,0,0-3.28.22,29.69,29.69,0,0,0-3.56,1.05l-.09,0a.76.76,0,0,1-1-.48.72.72,0,0,1,.08-.61,7.88,7.88,0,0,1,3.39-3,8.85,8.85,0,0,1,4.71-.83,10.69,10.69,0,0,1,4.43,1.41,9.53,9.53,0,0,1,3.24,3,.7.7,0,0,1-.24,1,.76.76,0,0,1-.67.07Z" transform="translate(-170 -399.26)"/><path class="cls-17" d="M1471.71,652a5.15,5.15,0,1,1-5.15-4.94A5,5,0,0,1,1471.71,652Z" transform="translate(-170 -399.26)"/><path class="cls-17" d="M1430.87,654a5.06,5.06,0,0,1-5.1,5c-.17-3.19-.17-6.53,0-9.88A5,5,0,0,1,1430.87,654Z" transform="translate(-170 -399.26)"/><path class="cls-11" d="M1457.83,598.5a103.48,103.48,0,0,0,1.17,13.29,55.14,55.14,0,0,0,3.4,12.75c1.65,4,4,7.84,7.59,10.28s8.1,3.33,12.65,3h0a.47.47,0,0,1,.52.43.47.47,0,0,1-.39.5,23.23,23.23,0,0,1-7.17.32,18.29,18.29,0,0,1-6.85-2.52c-4.2-2.65-6.88-6.88-8.66-11.13a50.2,50.2,0,0,1-3.19-13.38,64.5,64.5,0,0,1-.05-13.61.48.48,0,0,1,.53-.42.48.48,0,0,1,.44.46Z" transform="translate(-170 -399.26)"/><path class="cls-11" d="M1489.14,578.22c11.11,2.14,21.36,7,30.7,13.06a122.31,122.31,0,0,1,24.85,21.91l5.18,6.43c1.74,2.14,3.13,4.51,4.71,6.76a139,139,0,0,1,8.38,14.09,77.88,77.88,0,0,1,3.52,7.38l3.33,7.45c1.86,5.11,3.56,10.26,5.34,15.37a.47.47,0,0,1-.3.6.49.49,0,0,1-.61-.27l0,0c-2-5-4-10.05-6-15l-3.5-7.3a76.13,76.13,0,0,0-3.67-7.2c-2.76-4.64-5.2-9.46-8.44-13.81-1.57-2.19-2.95-4.52-4.68-6.6l-5.11-6.31A126.66,126.66,0,0,0,1518.64,593a79,79,0,0,0-6.93-4.36c-1.2-.67-2.36-1.39-3.58-2l-3.69-1.81a74.32,74.32,0,0,0-15.46-5.62h0a.47.47,0,0,1-.37-.56A.49.49,0,0,1,1489.14,578.22Z" transform="translate(-170 -399.26)"/><rect class="cls-11" x="700.25" y="1094" width="95" height="20.54" transform="translate(1325.49 1809.28) rotate(180)"/><path class="cls-7" d="M936.75,993.7,922.35,1028,889,1107.37a11.49,11.49,0,0,1-10.45,7.34H744.85l49.7-118.38c5.25-12.49,16.68-20.52,29.25-20.52H926.27C934.68,975.81,940.25,985.33,936.75,993.7Z" transform="translate(-170 -399.26)"/><path class="cls-20" d="M922.35,1028,889,1107.37a11.49,11.49,0,0,1-10.45,7.34H791.17C856.88,1093.57,897.7,1058.53,922.35,1028Z" transform="translate(-170 -399.26)"/><rect class="cls-11" x="1027.81" y="694.74" width="95" height="20.54"/><path class="cls-7" d="M1248.2,1114.71H1114.5a11.48,11.48,0,0,1-10.45-7.34l-30.5-72.62-17.25-41c-3.5-8.37,2.07-17.89,10.48-17.89h102.5c12.55,0,24,8,29.22,20.52Z" transform="translate(-170 -399.26)"/><path class="cls-20" d="M1182.77,1114.71H1114.5a11.48,11.48,0,0,1-10.45-7.34l-30.5-72.62C1097.15,1061.53,1136,1098.23,1182.77,1114.71Z" transform="translate(-170 -399.26)"/><rect class="cls-4" x="439.23" y="731.83" width="28.62" height="583.95"/><path class="cls-11" d="M639.1,1716.25H608V1129.89H639.1Zm-28.62-2.42H636.6V1132.3H610.48Z" transform="translate(-170 -399.26)"/><rect class="cls-4" x="1090.9" y="731.83" width="28.62" height="583.95"/><path class="cls-11" d="M1290.77,1716.25h-31.12V1129.89h31.12Zm-28.62-2.42h26.12V1132.3h-26.12Z" transform="translate(-170 -399.26)"/><rect class="cls-4" x="267.5" y="715.04" width="1023.75" height="22.96"/><path class="cls-11" d="M1462.5,1138.47H436.25V1113.1H1462.5Zm-1023.75-2.42H1460v-20.54H438.75Z" transform="translate(-170 -399.26)"/><rect class="cls-11" y="1314.57" width="1665" height="2.42"/><path class="cls-5" d="M831.57,668.4h65.07v18.3H858v14.88h33v17.2H858v34.8H831.57Z" transform="translate(-170 -399.26)"/><path class="cls-5" d="M910.94,668.4h26.32v29.81H966V668.4h26.44v85.18H966V719.12H937.26v34.46H910.94Z" transform="translate(-170 -399.26)"/><path class="cls-5" d="M1004,668.4h80v21h-26.85v64.15h-26.32V689.43H1004Z" transform="translate(-170 -399.26)"/></g></svg>