<svg id="Capa_1" data-name="Capa 1" xmlns="http://www.w3.org/2000/svg" viewBox="0 0 395.2 333.2"><defs><style>.cls-1{fill:#ffd4e2;}.cls-2{fill:#231f20;}</style></defs><polygon class="cls-1" points="78 56.8 371.6 56.8 371.6 280.8 78 280.8 78 250.4 96 250.4 96 198.8 78 198.8 78 138.8 96 138.8 96 87.2 78 87.2 78 56.8"/><path class="cls-2" d="M387.2,31H7.2A7.17,7.17,0,0,0,0,38.2v290a7.17,7.17,0,0,0,7.2,7.2H54.4V357a7.17,7.17,0,0,0,7.2,7.2H120a7.17,7.17,0,0,0,7.2-7.2V335.4H268V357a7.17,7.17,0,0,0,7.2,7.2h58.4a7.17,7.17,0,0,0,7.2-7.2V335.4H388a7.17,7.17,0,0,0,7.2-7.2V38.2C394,34.2,390.8,31,387.2,31ZM112.8,349.8h-44V335.4h44Zm212.8,0h-44V335.4h44ZM380,321H14.4V45H380Z" transform="translate(0 -31)"/><path class="cls-2" d="M42,271.8H53.2V295a7.17,7.17,0,0,0,7.2,7.2H354a7.17,7.17,0,0,0,7.2-7.2V71a7.17,7.17,0,0,0-7.2-7.2H60A7.17,7.17,0,0,0,52.8,71V94.2H42a7.17,7.17,0,0,0-7.2,7.2V153a7.17,7.17,0,0,0,7.2,7.2H53.2v46H42.4a7.17,7.17,0,0,0-7.2,7.2V265A7,7,0,0,0,42,271.8ZM67.2,78.2H346.8v210H67.2V271.8H78a7.17,7.17,0,0,0,7.2-7.2V213.4a7.17,7.17,0,0,0-7.2-7.2H67.2v-46H78a7.17,7.17,0,0,0,7.2-7.2V101.4A7.17,7.17,0,0,0,78,94.2H67.2Zm-18,67.6V108.2H70.8v37.6H49.2Zm0,74.4H70.8v37.6H49.2Z" transform="translate(0 -31)"/><path class="cls-2" d="M270.8,234.2A50.8,50.8,0,1,0,220,183.4,50.87,50.87,0,0,0,270.8,234.2Zm0-88A36.8,36.8,0,1,1,234,183,36.7,36.7,0,0,1,270.8,146.2Z" transform="translate(0 -31)"/><path class="cls-2" d="M270.8,207a23.64,23.64,0,0,0,23.6-23.6,23.91,23.91,0,0,0-23.6-23.6,23.64,23.64,0,0,0-23.6,23.6A23.91,23.91,0,0,0,270.8,207Zm0-33.6a9.6,9.6,0,0,1,0,19.2,9.48,9.48,0,0,1-9.6-9.6A9.73,9.73,0,0,1,270.8,173.4Z" transform="translate(0 -31)"/></svg>