<svg id="Layer_5" data-name="Layer 5" xmlns="http://www.w3.org/2000/svg" viewBox="0 0 504 496"><defs><style>.cls-1{fill:#ffd4e2;}</style></defs><rect class="cls-1" x="23.3" y="84.66" width="480.7" height="358.67"/><path d="M456,276.24V119.36A56,56,0,1,0,392,64H8V384H248.41c4.16,66.85,59.72,120,127.59,120a127.89,127.89,0,0,0,80-227.76ZM448,24a40,40,0,1,1-40,40A40,40,0,0,1,448,24ZM24,80H394.36a55.89,55.89,0,0,0,8.86,17.48l-48.93,48.93a23.15,23.15,0,0,0-20.57,0L317.6,130.29A23.73,23.73,0,0,0,320,120a24,24,0,0,0-48,0,23.52,23.52,0,0,0,2.41,10.28L234.29,170.4A23.73,23.73,0,0,0,224,168a24,24,0,1,0,24,24,23.52,23.52,0,0,0-2.41-10.28l40.12-40.12a23.19,23.19,0,0,0,20.57,0l16.12,16.12A23.73,23.73,0,0,0,320,168a24,24,0,0,0,48,0,23.52,23.52,0,0,0-2.41-10.28l48.94-48.93A55.67,55.67,0,0,0,440,119.37v146a127.22,127.22,0,0,0-160,26.29V256H232v96h18.34a125.75,125.75,0,0,0-1.93,16H24Zm320,80a8,8,0,1,1-8,8A8,8,0,0,1,344,160Zm-56-40a8,8,0,1,1,8,8A8,8,0,0,1,288,120Zm-56,72a8,8,0,1,1-8-8A8,8,0,0,1,232,192ZM376,440a64,64,0,1,1,64-64A64.07,64.07,0,0,1,376,440ZM264,314.17A126.81,126.81,0,0,0,254.49,336H248V272h16Zm104-49.76v32a79.83,79.83,0,0,0-64.87,112.42l-27.75,16A111,111,0,0,1,264,376c0-59.06,46-107.46,104-111.59ZM376,488a111.93,111.93,0,0,1-92.7-49.24l27.86-16.09a79.73,79.73,0,0,0,129.68,0l27.86,16.09A111.93,111.93,0,0,1,376,488Zm100.62-63.14-27.75-16A79.83,79.83,0,0,0,384,296.41v-32c58,4.13,104,52.53,104,111.59a111,111,0,0,1-11.38,48.86Z" transform="translate(-8 -8)"/><path d="M376,328a48,48,0,1,0,48,48A48.05,48.05,0,0,0,376,328Zm0,80a32,32,0,1,1,32-32A32,32,0,0,1,376,408Z" transform="translate(-8 -8)"/><path d="M40,96H56v16H40Z" transform="translate(-8 -8)"/><path d="M72,96H184v16H72Z" transform="translate(-8 -8)"/><path d="M40,128H56v16H40Z" transform="translate(-8 -8)"/><path d="M72,128H184v16H72Z" transform="translate(-8 -8)"/><path d="M40,160H56v16H40Z" transform="translate(-8 -8)"/><path d="M72,160H184v16H72Z" transform="translate(-8 -8)"/><path d="M40,192H56v16H40Z" transform="translate(-8 -8)"/><path d="M72,192H184v16H72Z" transform="translate(-8 -8)"/><path d="M40,352H88V272H40Zm16-64H72v48H56Z" transform="translate(-8 -8)"/><path d="M104,352h48V288H104Zm16-48h16v32H120Z" transform="translate(-8 -8)"/><path d="M168,352h48V224H168Zm16-112h16v96H184Z" transform="translate(-8 -8)"/></svg>