<svg id="Capa_1" data-name="Capa 1" xmlns="http://www.w3.org/2000/svg" viewBox="0 0 504.12 504.11"><defs><style>.cls-1{fill-rule:evenodd;}</style></defs><path class="cls-1" d="M387.75,176.8a109.29,109.29,0,0,1-30.83,8.41,53.48,53.48,0,0,0,23.65-29.37,109.67,109.67,0,0,1-34.18,12.89A54.3,54.3,0,0,0,307.05,152c-29.71,0-53.8,23.65-53.8,52.9A54.55,54.55,0,0,0,254.59,217a153.81,153.81,0,0,1-111-55.37,52.45,52.45,0,0,0,16.7,70.73,54.41,54.41,0,0,1-24.44-6.62v.67a51.73,51.73,0,0,0,3.7,19.17,53.75,53.75,0,0,0,39.57,32.85,57.32,57.32,0,0,1-24.33.89,53.67,53.67,0,0,0,50.22,36.77,108.81,108.81,0,0,1-66.8,22.75,121.87,121.87,0,0,1-12.89-.78A154.7,154.7,0,0,0,208,361.86c84.06,0,135.84-58.29,149.4-118.7a143.4,143.4,0,0,0,3.7-32.06c0-2.24,0-4.6-.11-6.84a107.73,107.73,0,0,0,26.79-27.46Z" transform="translate(-4.5 -4.89)"/><path d="M256.56,509C117.57,509,4.5,395.93,4.5,256.94s113.07-252,252.06-252A254.18,254.18,0,0,1,307.19,10a248.47,248.47,0,0,1,27,7.11A8.47,8.47,0,1,1,329,33.2a233.55,233.55,0,0,0-25.2-6.62,236.89,236.89,0,0,0-47.25-4.75C126.91,21.83,21.44,127.3,21.44,256.94S126.91,492.06,256.56,492.06,491.67,386.59,491.67,256.94a235.44,235.44,0,0,0-27.62-110.65,8.47,8.47,0,0,1,14.95-8,252.5,252.5,0,0,1,29.61,118.63C508.61,395.93,395.54,509,256.56,509Z" transform="translate(-4.5 -4.89)"/><path d="M427.3,91.7a8.41,8.41,0,0,1-5.94-2.44,236.27,236.27,0,0,0-19-16.78c-5.07-4-10.37-7.87-15.76-11.45A8.47,8.47,0,1,1,396,46.92c5.78,3.85,11.46,8,16.88,12.28a253.68,253.68,0,0,1,20.38,18A8.47,8.47,0,0,1,427.3,91.7Z" transform="translate(-4.5 -4.89)"/></svg>