<svg id="Layer_1" data-name="Layer 1" xmlns="http://www.w3.org/2000/svg" viewBox="0 0 170.86 170.86"><defs><style>.cls-1{fill:#ffe7f0;}.cls-2{fill:#aa2b5b;}.cls-3{fill:#ac692a;}.cls-4{fill:#ffb63d;}.cls-5{fill:#ff3378;}.cls-6{fill:#aa2b52;}.cls-7{fill:#aa2b5f;}.cls-8{fill:#aa2b55;}.cls-9{fill:#aa2b59;}.cls-10{fill:#aa2b4f;}.cls-11{fill:#aa2b49;}.cls-12{fill:#ff92a7;}.cls-13{fill:#f9e4ce;}</style></defs><rect class="cls-1" width="170.86" height="170.86" rx="19.84"/><path class="cls-2" d="M99.53,111.31c2.14,5.16-11.24,9.92-30.17,9.92s-32.31-4.76-30.18-9.92c1.87-4.52,15.29-7.8,30.18-7.8S97.66,106.79,99.53,111.31Z" transform="translate(-5.43 -5.43)"/><path class="cls-2" d="M99,110.85c2,4.8-11.09,9.21-29.61,9.21s-31.66-4.41-29.61-9.21c1.8-4.21,15-7.27,29.61-7.27S97.16,106.64,99,110.85Z" transform="translate(-5.43 -5.43)"/><path class="cls-3" d="M93.25,110.89c1.32,4-9.32,7.63-23.89,7.63s-25.21-3.6-23.89-7.63c1.18-3.62,11.83-6.3,23.89-6.3S92.06,107.27,93.25,110.89Z" transform="translate(-5.43 -5.43)"/><path class="cls-4" d="M92.62,111c1.25,3.92-9.11,7.41-23.26,7.41S44.85,114.94,46.09,111c1.13-3.54,11.5-6.16,23.27-6.16S91.49,107.48,92.62,111Z" transform="translate(-5.43 -5.43)"/><path class="cls-5" d="M39,112.37c0,4.89,13.61,8.86,30.4,8.86s30.39-4,30.39-8.86v9.69c0,4.89-13.61,8.86-30.39,8.86S39,127,39,122.06Z" transform="translate(-5.43 -5.43)"/><path class="cls-6" d="M69.65,130.92v-9.69h-.59v9.69h.59Z" transform="translate(-5.43 -5.43)"/><path class="cls-6" d="M67.81,121.22h-.6v9.69h.6Z" transform="translate(-5.43 -5.43)"/><path class="cls-6" d="M97.14,116l-.59.36V126l.59-.36Z" transform="translate(-5.43 -5.43)"/><path class="cls-6" d="M95.29,117l-.59.27V127l.59-.27Z" transform="translate(-5.43 -5.43)"/><path class="cls-6" d="M66,121.17l-.6,0v9.69l.6,0Z" transform="translate(-5.43 -5.43)"/><path class="cls-6" d="M64.11,121.09l-.6,0v9.69l.6,0Z" transform="translate(-5.43 -5.43)"/><path class="cls-6" d="M62.26,121l-.6,0v9.69l.6,0Z" transform="translate(-5.43 -5.43)"/><path class="cls-6" d="M60.41,120.84l-.6-.06v9.69l.6.06Z" transform="translate(-5.43 -5.43)"/><path class="cls-6" d="M56.71,120.42l-.59-.08V130l.59.08Z" transform="translate(-5.43 -5.43)"/><path class="cls-6" d="M40.07,124.41a5.3,5.3,0,0,0,.59.56v-9.69a5.3,5.3,0,0,1-.59-.56Z" transform="translate(-5.43 -5.43)"/><path class="cls-6" d="M58.56,120.65l-.6-.07v9.69l.6.07Z" transform="translate(-5.43 -5.43)"/><path class="cls-6" d="M54.86,120.16l-.59-.1v9.69l.59.1Z" transform="translate(-5.43 -5.43)"/><path class="cls-6" d="M51.16,119.47l-.59-.14V129l.59.14Z" transform="translate(-5.43 -5.43)"/><path class="cls-6" d="M47.46,118.51l-.59-.18V128l.59.18Z" transform="translate(-5.43 -5.43)"/><path class="cls-7" d="M99.53,99.72c2.14,5.16-11.24,9.92-30.17,9.92s-32.31-4.76-30.18-9.92c1.87-4.52,15.29-7.8,30.18-7.8S97.66,95.2,99.53,99.72Z" transform="translate(-5.43 -5.43)"/><path class="cls-8" d="M99,99.26c2,4.8-11.09,9.21-29.61,9.21s-31.66-4.41-29.61-9.21C41.55,95,54.72,92,69.36,92S97.16,95,99,99.26Z" transform="translate(-5.43 -5.43)"/><path class="cls-3" d="M93.25,99.3c1.32,4-9.32,7.63-23.89,7.63s-25.21-3.61-23.89-7.63C46.65,95.68,57.3,93,69.36,93S92.06,95.68,93.25,99.3Z" transform="translate(-5.43 -5.43)"/><path class="cls-4" d="M92.62,99.43c1.25,3.91-9.11,7.41-23.26,7.41s-24.51-3.5-23.27-7.41c1.13-3.54,11.5-6.17,23.27-6.17S91.49,95.89,92.62,99.43Z" transform="translate(-5.43 -5.43)"/><path class="cls-5" d="M39,100.78c0,4.89,13.61,8.86,30.4,8.86s30.39-4,30.39-8.86v9.69c0,4.89-13.61,8.86-30.39,8.86s-30.4-4-30.4-8.86Z" transform="translate(-5.43 -5.43)"/><path class="cls-6" d="M69.65,119.33v-9.69h-.59v9.69h.59Z" transform="translate(-5.43 -5.43)"/><path class="cls-6" d="M67.81,109.63l-.6,0v9.69l.6,0Z" transform="translate(-5.43 -5.43)"/><path class="cls-6" d="M97.14,104.38l-.59.36v9.69l.59-.36Z" transform="translate(-5.43 -5.43)"/><path class="cls-6" d="M95.29,105.4l-.59.27v9.69a6.28,6.28,0,0,0,.59-.27Z" transform="translate(-5.43 -5.43)"/><path class="cls-6" d="M66,109.58l-.6,0v9.69l.6,0Z" transform="translate(-5.43 -5.43)"/><path class="cls-6" d="M64.11,109.5l-.6,0v9.69l.6,0Z" transform="translate(-5.43 -5.43)"/><path class="cls-6" d="M62.26,109.39l-.6,0V119l.6,0Z" transform="translate(-5.43 -5.43)"/><path class="cls-6" d="M60.41,109.25l-.6-.06v9.69l.6.06Z" transform="translate(-5.43 -5.43)"/><path class="cls-6" d="M56.71,108.83l-.59-.08v9.69l.59.08Z" transform="translate(-5.43 -5.43)"/><path class="cls-6" d="M40.07,112.82a5.3,5.3,0,0,0,.59.56v-9.69a6.41,6.41,0,0,1-.59-.56Z" transform="translate(-5.43 -5.43)"/><path class="cls-6" d="M58.56,109.06,58,109v9.69l.6.07Z" transform="translate(-5.43 -5.43)"/><path class="cls-6" d="M54.86,108.57l-.59-.1v9.69l.59.1Z" transform="translate(-5.43 -5.43)"/><path class="cls-6" d="M51.16,107.87l-.59-.13v9.69l.59.13Z" transform="translate(-5.43 -5.43)"/><path class="cls-6" d="M47.46,106.92l-.59-.18v9.69l.59.18Z" transform="translate(-5.43 -5.43)"/><path class="cls-7" d="M99.53,88.13c2.14,5.16-11.24,9.92-30.17,9.92s-32.31-4.76-30.18-9.92c1.87-4.53,15.29-7.8,30.18-7.8S97.66,83.6,99.53,88.13Z" transform="translate(-5.43 -5.43)"/><path class="cls-8" d="M99,87.67c2,4.8-11.09,9.2-29.61,9.2s-31.66-4.4-29.61-9.2c1.8-4.22,15-7.28,29.61-7.28S97.16,83.45,99,87.67Z" transform="translate(-5.43 -5.43)"/><path class="cls-3" d="M93.25,87.71c1.32,4-9.32,7.62-23.89,7.62s-25.21-3.6-23.89-7.62c1.18-3.62,11.83-6.3,23.89-6.3S92.06,84.09,93.25,87.71Z" transform="translate(-5.43 -5.43)"/><path class="cls-4" d="M92.62,87.83c1.25,3.92-9.11,7.42-23.26,7.42s-24.51-3.5-23.27-7.42c1.13-3.53,11.5-6.16,23.27-6.16S91.49,84.3,92.62,87.83Z" transform="translate(-5.43 -5.43)"/><path class="cls-5" d="M39,89.19c0,4.89,13.61,8.86,30.4,8.86s30.39-4,30.39-8.86v9.69c0,4.89-13.61,8.86-30.39,8.86s-30.4-4-30.4-8.86Z" transform="translate(-5.43 -5.43)"/><path class="cls-6" d="M69.65,107.73V98h-.59v9.69h.59Z" transform="translate(-5.43 -5.43)"/><path class="cls-6" d="M67.81,98h-.6v9.69l.6,0Z" transform="translate(-5.43 -5.43)"/><path class="cls-6" d="M97.14,92.78c-.19.13-.39.25-.59.37v9.69c.2-.12.4-.24.59-.37Z" transform="translate(-5.43 -5.43)"/><path class="cls-6" d="M95.29,93.81l-.59.27v9.69l.59-.27Z" transform="translate(-5.43 -5.43)"/><path class="cls-6" d="M66,98l-.6,0v9.69l.6,0Z" transform="translate(-5.43 -5.43)"/><path class="cls-6" d="M64.11,97.91l-.6,0v9.69l.6,0Z" transform="translate(-5.43 -5.43)"/><path class="cls-6" d="M62.26,97.8l-.6,0v9.69l.6,0Z" transform="translate(-5.43 -5.43)"/><path class="cls-6" d="M60.41,97.65l-.6-.05v9.69l.6.06Z" transform="translate(-5.43 -5.43)"/><path class="cls-6" d="M56.71,97.24l-.59-.08v9.69l.59.08Z" transform="translate(-5.43 -5.43)"/><path class="cls-6" d="M40.07,101.23a6.41,6.41,0,0,0,.59.56V92.1a6.41,6.41,0,0,1-.59-.56Z" transform="translate(-5.43 -5.43)"/><path class="cls-6" d="M58.56,97.47,58,97.4v9.69l.6.07Z" transform="translate(-5.43 -5.43)"/><path class="cls-6" d="M54.86,97l-.59-.1v9.69l.59.1Z" transform="translate(-5.43 -5.43)"/><path class="cls-6" d="M51.16,96.28l-.59-.13v9.69l.59.13Z" transform="translate(-5.43 -5.43)"/><path class="cls-6" d="M47.46,95.33l-.59-.19v9.69l.59.19Z" transform="translate(-5.43 -5.43)"/><path class="cls-2" d="M99.53,76.54c2.14,5.16-11.24,9.91-30.17,9.91S37.05,81.7,39.18,76.54c1.87-4.53,15.29-7.8,30.18-7.8S97.66,72,99.53,76.54Z" transform="translate(-5.43 -5.43)"/><path class="cls-6" d="M99,76.07c2,4.8-11.09,9.21-29.61,9.21S37.7,80.87,39.75,76.07c1.8-4.21,15-7.27,29.61-7.27S97.16,71.86,99,76.07Z" transform="translate(-5.43 -5.43)"/><path class="cls-3" d="M93.25,76.12c1.32,4-9.32,7.62-23.89,7.62s-25.21-3.6-23.89-7.62c1.18-3.62,11.83-6.31,23.89-6.31S92.06,72.5,93.25,76.12Z" transform="translate(-5.43 -5.43)"/><path class="cls-4" d="M92.62,76.24c1.25,3.92-9.11,7.42-23.26,7.42s-24.51-3.5-23.27-7.42c1.13-3.53,11.5-6.16,23.27-6.16S91.49,72.71,92.62,76.24Z" transform="translate(-5.43 -5.43)"/><path class="cls-5" d="M39,77.6c0,4.89,13.61,8.85,30.4,8.85s30.39-4,30.39-8.85v9.69c0,4.89-13.61,8.86-30.39,8.86S39,92.18,39,87.29Z" transform="translate(-5.43 -5.43)"/><path class="cls-9" d="M69.65,96.14V86.45h-.59v9.69h.59Z" transform="translate(-5.43 -5.43)"/><path class="cls-9" d="M67.81,86.44h-.6v9.69h.6Z" transform="translate(-5.43 -5.43)"/><path class="cls-9" d="M97.14,81.19c-.19.13-.39.25-.59.37v9.69c.2-.12.4-.24.59-.37Z" transform="translate(-5.43 -5.43)"/><path class="cls-9" d="M95.29,82.22l-.59.27v9.69l.59-.27Z" transform="translate(-5.43 -5.43)"/><path class="cls-9" d="M66,86.4l-.6,0v9.69l.6,0Z" transform="translate(-5.43 -5.43)"/><path class="cls-9" d="M64.11,86.32l-.6,0V96l.6,0Z" transform="translate(-5.43 -5.43)"/><path class="cls-9" d="M62.26,86.21l-.6,0v9.69l.6,0Z" transform="translate(-5.43 -5.43)"/><path class="cls-9" d="M60.41,86.06l-.6,0V95.7l.6,0Z" transform="translate(-5.43 -5.43)"/><path class="cls-9" d="M56.71,85.65l-.59-.08v9.69l.59.08Z" transform="translate(-5.43 -5.43)"/><path class="cls-9" d="M40.07,89.64a6.41,6.41,0,0,0,.59.56V80.5a5.24,5.24,0,0,1-.59-.55Z" transform="translate(-5.43 -5.43)"/><path class="cls-9" d="M58.56,85.88l-.6-.07V95.5l.6.07Z" transform="translate(-5.43 -5.43)"/><path class="cls-9" d="M54.86,85.38l-.59-.1V95l.59.1Z" transform="translate(-5.43 -5.43)"/><path class="cls-9" d="M51.16,84.69l-.59-.14v9.69l.59.14Z" transform="translate(-5.43 -5.43)"/><path class="cls-9" d="M47.46,83.73l-.59-.18v9.69l.59.18Z" transform="translate(-5.43 -5.43)"/><path class="cls-10" d="M99.53,64.94c2.14,5.17-11.24,9.92-30.17,9.92s-32.31-4.75-30.18-9.92c1.87-4.52,15.29-7.8,30.18-7.8S97.66,60.42,99.53,64.94Z" transform="translate(-5.43 -5.43)"/><path class="cls-11" d="M99,64.48c2,4.8-11.09,9.21-29.61,9.21S37.7,69.28,39.75,64.48c1.8-4.21,15-7.27,29.61-7.27S97.16,60.27,99,64.48Z" transform="translate(-5.43 -5.43)"/><path class="cls-3" d="M93.25,64.53c1.32,4-9.32,7.62-23.89,7.62s-25.21-3.6-23.89-7.62c1.18-3.63,11.83-6.31,23.89-6.31S92.06,60.9,93.25,64.53Z" transform="translate(-5.43 -5.43)"/><path class="cls-4" d="M92.62,64.65c1.25,3.92-9.11,7.42-23.26,7.42s-24.51-3.5-23.27-7.42c1.13-3.54,11.5-6.16,23.27-6.16S91.49,61.11,92.62,64.65Z" transform="translate(-5.43 -5.43)"/><path class="cls-5" d="M39,66c0,4.9,13.61,8.86,30.4,8.86s30.39-4,30.39-8.86v9.69c0,4.9-13.61,8.86-30.39,8.86S39,80.59,39,75.69Z" transform="translate(-5.43 -5.43)"/><path class="cls-9" d="M69.65,84.55V74.86h-.59v9.69h.59Z" transform="translate(-5.43 -5.43)"/><path class="cls-9" d="M67.81,74.85h-.6v9.69h.6Z" transform="translate(-5.43 -5.43)"/><path class="cls-9" d="M97.14,69.6l-.59.37v9.69l.59-.37Z" transform="translate(-5.43 -5.43)"/><path class="cls-9" d="M95.29,70.63l-.59.27v9.69l.59-.27Z" transform="translate(-5.43 -5.43)"/><path class="cls-9" d="M66,74.81l-.6,0v9.69l.6,0Z" transform="translate(-5.43 -5.43)"/><path class="cls-9" d="M64.11,74.73l-.6,0v9.69l.6,0Z" transform="translate(-5.43 -5.43)"/><path class="cls-9" d="M62.26,74.62l-.6-.05v9.7l.6,0Z" transform="translate(-5.43 -5.43)"/><path class="cls-9" d="M60.41,74.47l-.6-.06V84.1l.6.06Z" transform="translate(-5.43 -5.43)"/><path class="cls-9" d="M56.71,74.06,56.12,74v9.69l.59.08Z" transform="translate(-5.43 -5.43)"/><path class="cls-9" d="M40.07,78.05a6.36,6.36,0,0,0,.59.55V68.91a6.36,6.36,0,0,1-.59-.55Z" transform="translate(-5.43 -5.43)"/><path class="cls-9" d="M58.56,74.28l-.6-.06v9.69l.6.06Z" transform="translate(-5.43 -5.43)"/><path class="cls-9" d="M54.86,73.79l-.59-.1v9.69l.59.1Z" transform="translate(-5.43 -5.43)"/><path class="cls-9" d="M51.16,73.1,50.57,73v9.69l.59.14Z" transform="translate(-5.43 -5.43)"/><path class="cls-9" d="M47.46,72.14,46.87,72v9.69l.59.18Z" transform="translate(-5.43 -5.43)"/><path class="cls-11" d="M99.53,53.35c2.14,5.17-11.24,9.92-30.17,9.92s-32.31-4.75-30.18-9.92c1.87-4.52,15.29-7.8,30.18-7.8S97.66,48.83,99.53,53.35Z" transform="translate(-5.43 -5.43)"/><path class="cls-12" d="M99,52.89c2,4.8-11.09,9.21-29.61,9.21S37.7,57.69,39.75,52.89c1.8-4.21,15-7.27,29.61-7.27S97.16,48.68,99,52.89Z" transform="translate(-5.43 -5.43)"/><path class="cls-13" d="M93.55,53.2c1.32,4-9.31,7.62-23.89,7.62s-25.21-3.6-23.89-7.62c1.19-3.62,11.84-6.31,23.89-6.31S92.36,49.58,93.55,53.2Z" transform="translate(-5.43 -5.43)"/><path class="cls-6" d="M93.25,52.93c1.32,4-9.32,7.63-23.89,7.63S44.15,57,45.47,52.93c1.18-3.62,11.83-6.3,23.89-6.3S92.06,49.31,93.25,52.93Z" transform="translate(-5.43 -5.43)"/><path class="cls-5" d="M92.62,53.06c1.25,3.92-9.11,7.41-23.26,7.41S44.85,57,46.09,53.06c1.13-3.54,11.5-6.16,23.27-6.16S91.49,49.52,92.62,53.06Z" transform="translate(-5.43 -5.43)"/><path class="cls-13" d="M92.62,53.06a3.38,3.38,0,0,0-1-1.42,2.9,2.9,0,0,1,.68,1.1c1.25,3.92-9.11,7.42-23.26,7.42-10.77,0-19.33-2-22.27-4.72,2.59,2.85,11.4,5,22.59,5C83.51,60.47,93.87,57,92.62,53.06Z" transform="translate(-5.43 -5.43)"/><path class="cls-5" d="M39,54.41c0,4.89,13.61,8.86,30.4,8.86s30.39-4,30.39-8.86V64.1C99.76,69,86.15,73,69.37,73S39,69,39,64.1Z" transform="translate(-5.43 -5.43)"/><path class="cls-6" d="M69.65,73V63.27h-.59V73h.59Z" transform="translate(-5.43 -5.43)"/><path class="cls-6" d="M67.81,63.26h-.6v9.69h.6Z" transform="translate(-5.43 -5.43)"/><path class="cls-6" d="M97.14,58l-.59.36v9.7l.59-.37Z" transform="translate(-5.43 -5.43)"/><path class="cls-6" d="M95.29,59l-.59.27V69l.59-.27Z" transform="translate(-5.43 -5.43)"/><path class="cls-6" d="M66,63.21l-.6,0v9.69l.6,0Z" transform="translate(-5.43 -5.43)"/><path class="cls-6" d="M64.11,63.14l-.6,0v9.7l.6,0Z" transform="translate(-5.43 -5.43)"/><path class="cls-6" d="M62.26,63l-.6,0v9.69l.6,0Z" transform="translate(-5.43 -5.43)"/><path class="cls-6" d="M60.41,62.88l-.6-.06v9.69l.6.06Z" transform="translate(-5.43 -5.43)"/><path class="cls-6" d="M56.71,62.47l-.59-.08v9.69l.59.08Z" transform="translate(-5.43 -5.43)"/><path class="cls-6" d="M40.07,66.45a5.3,5.3,0,0,0,.59.56V57.32a5.3,5.3,0,0,1-.59-.56Z" transform="translate(-5.43 -5.43)"/><path class="cls-6" d="M58.56,62.69l-.6-.07v9.69l.6.07Z" transform="translate(-5.43 -5.43)"/><path class="cls-6" d="M54.86,62.2l-.59-.1v9.69l.59.1Z" transform="translate(-5.43 -5.43)"/><path class="cls-6" d="M51.16,61.51l-.59-.14v9.69l.59.14Z" transform="translate(-5.43 -5.43)"/><path class="cls-6" d="M47.46,60.55l-.59-.18v9.69l.59.18Z" transform="translate(-5.43 -5.43)"/><path class="cls-7" d="M146.54,124.86c2.14,5.16-11.24,9.92-30.17,9.92S84.06,130,86.19,124.86c1.87-4.52,15.29-7.8,30.18-7.8S144.67,120.34,146.54,124.86Z" transform="translate(-5.43 -5.43)"/><path class="cls-8" d="M146,124.4c2.05,4.8-11.08,9.21-29.61,9.21s-31.66-4.41-29.61-9.21c1.8-4.22,15-7.27,29.61-7.27S144.17,120.18,146,124.4Z" transform="translate(-5.43 -5.43)"/><path class="cls-3" d="M140.26,124.44c1.32,4-9.32,7.63-23.89,7.63s-25.21-3.6-23.89-7.63c1.18-3.62,11.83-6.3,23.89-6.3S139.07,120.82,140.26,124.44Z" transform="translate(-5.43 -5.43)"/><path class="cls-4" d="M139.63,124.57c1.25,3.92-9.11,7.41-23.26,7.41s-24.51-3.49-23.26-7.41c1.12-3.54,11.5-6.16,23.26-6.16S138.5,121,139.63,124.57Z" transform="translate(-5.43 -5.43)"/><path class="cls-2" d="M146.54,113.27c2.14,5.16-11.24,9.92-30.17,9.92s-32.31-4.76-30.18-9.92c1.87-4.52,15.29-7.8,30.18-7.8S144.67,108.75,146.54,113.27Z" transform="translate(-5.43 -5.43)"/><path class="cls-6" d="M146,112.81c2.05,4.8-11.08,9.21-29.61,9.21s-31.66-4.41-29.61-9.21c1.8-4.22,15-7.27,29.61-7.27S144.17,108.59,146,112.81Z" transform="translate(-5.43 -5.43)"/><path class="cls-3" d="M140.26,112.85c1.32,4-9.32,7.63-23.89,7.63s-25.21-3.61-23.89-7.63c1.18-3.62,11.83-6.3,23.89-6.3S139.07,109.23,140.26,112.85Z" transform="translate(-5.43 -5.43)"/><path class="cls-4" d="M139.63,113c1.25,3.91-9.11,7.41-23.26,7.41s-24.51-3.5-23.26-7.41c1.12-3.54,11.5-6.17,23.26-6.17S138.5,109.44,139.63,113Z" transform="translate(-5.43 -5.43)"/><path class="cls-5" d="M86,114.33c0,4.89,13.6,8.86,30.39,8.86s30.39-4,30.39-8.86V124c0,4.89-13.61,8.86-30.39,8.86S86,128.91,86,124Z" transform="translate(-5.43 -5.43)"/><path class="cls-9" d="M116.66,132.88v-9.69h-.59v9.69h.59Z" transform="translate(-5.43 -5.43)"/><path class="cls-9" d="M114.82,123.18l-.6,0v9.69l.6,0Z" transform="translate(-5.43 -5.43)"/><path class="cls-9" d="M144.15,117.92c-.19.13-.39.25-.59.37V128l.59-.36Z" transform="translate(-5.43 -5.43)"/><path class="cls-9" d="M142.3,119l-.59.27v9.69c.2-.09.4-.17.59-.27Z" transform="translate(-5.43 -5.43)"/><path class="cls-9" d="M113,123.13l-.6,0v9.69l.6,0Z" transform="translate(-5.43 -5.43)"/><path class="cls-9" d="M111.12,123.05l-.6,0v9.69l.6,0Z" transform="translate(-5.43 -5.43)"/><path class="cls-9" d="M109.27,122.94l-.6,0v9.69l.6,0Z" transform="translate(-5.43 -5.43)"/><path class="cls-9" d="M107.42,122.8l-.6-.06v9.69l.6.06Z" transform="translate(-5.43 -5.43)"/><path class="cls-9" d="M103.72,122.38l-.59-.08V132l.59.08Z" transform="translate(-5.43 -5.43)"/><path class="cls-9" d="M87.08,126.37a5.3,5.3,0,0,0,.59.56v-9.69a6.41,6.41,0,0,1-.59-.56Z" transform="translate(-5.43 -5.43)"/><path class="cls-9" d="M105.57,122.61l-.6-.07v9.69l.6.07Z" transform="translate(-5.43 -5.43)"/><path class="cls-9" d="M101.87,122.12l-.59-.1v9.69l.59.1Z" transform="translate(-5.43 -5.43)"/><path class="cls-9" d="M98.17,121.42l-.59-.13V131l.59.13Z" transform="translate(-5.43 -5.43)"/><path class="cls-9" d="M94.47,120.47l-.59-.19V130l.59.18Z" transform="translate(-5.43 -5.43)"/><path class="cls-10" d="M146.54,101.68c2.14,5.16-11.24,9.92-30.17,9.92s-32.31-4.76-30.18-9.92c1.87-4.53,15.29-7.8,30.18-7.8S144.67,97.15,146.54,101.68Z" transform="translate(-5.43 -5.43)"/><path class="cls-11" d="M146,101.22c2.05,4.8-11.08,9.2-29.61,9.2s-31.66-4.4-29.61-9.2c1.8-4.22,15-7.28,29.61-7.28S144.17,97,146,101.22Z" transform="translate(-5.43 -5.43)"/><path class="cls-3" d="M140.26,101.26c1.32,4-9.32,7.62-23.89,7.62s-25.21-3.6-23.89-7.62c1.18-3.62,11.83-6.3,23.89-6.3S139.07,97.64,140.26,101.26Z" transform="translate(-5.43 -5.43)"/><path class="cls-4" d="M139.63,101.38c1.25,3.92-9.11,7.42-23.26,7.42s-24.51-3.5-23.26-7.42c1.12-3.53,11.5-6.16,23.26-6.16S138.5,97.85,139.63,101.38Z" transform="translate(-5.43 -5.43)"/><path class="cls-5" d="M86,102.74c0,4.89,13.6,8.86,30.39,8.86s30.39-4,30.39-8.86v9.69c0,4.89-13.61,8.86-30.39,8.86S86,117.32,86,112.43Z" transform="translate(-5.43 -5.43)"/><path class="cls-9" d="M116.66,121.28v-9.69h-.59v9.69h.59Z" transform="translate(-5.43 -5.43)"/><path class="cls-9" d="M114.82,111.58h-.6v9.69l.6,0Z" transform="translate(-5.43 -5.43)"/><path class="cls-9" d="M144.15,106.33c-.19.13-.39.25-.59.37v9.69c.2-.12.4-.24.59-.37Z" transform="translate(-5.43 -5.43)"/><path class="cls-9" d="M142.3,107.36l-.59.27v9.69l.59-.27Z" transform="translate(-5.43 -5.43)"/><path class="cls-9" d="M113,111.54l-.6,0v9.69l.6,0Z" transform="translate(-5.43 -5.43)"/><path class="cls-9" d="M111.12,111.46l-.6,0v9.69l.6,0Z" transform="translate(-5.43 -5.43)"/><path class="cls-9" d="M109.27,111.35l-.6,0V121l.6,0Z" transform="translate(-5.43 -5.43)"/><path class="cls-9" d="M107.42,111.2l-.6,0v9.69l.6.06Z" transform="translate(-5.43 -5.43)"/><path class="cls-9" d="M103.72,110.79l-.59-.08v9.69l.59.08Z" transform="translate(-5.43 -5.43)"/><path class="cls-9" d="M87.08,114.78a6.41,6.41,0,0,0,.59.56v-9.69a6.41,6.41,0,0,1-.59-.56Z" transform="translate(-5.43 -5.43)"/><path class="cls-9" d="M105.57,111,105,111v9.69l.6.07Z" transform="translate(-5.43 -5.43)"/><path class="cls-9" d="M101.87,110.52l-.59-.1v9.69l.59.1Z" transform="translate(-5.43 -5.43)"/><path class="cls-9" d="M98.17,109.83l-.59-.14v9.7l.59.13Z" transform="translate(-5.43 -5.43)"/><path class="cls-9" d="M94.47,108.87l-.59-.18v9.69l.59.19Z" transform="translate(-5.43 -5.43)"/><path class="cls-11" d="M146.54,90.09c2.14,5.16-11.24,9.91-30.17,9.91s-32.31-4.75-30.18-9.91c1.87-4.53,15.29-7.8,30.18-7.8S144.67,85.56,146.54,90.09Z" transform="translate(-5.43 -5.43)"/><path class="cls-12" d="M146,89.62c2.05,4.8-11.08,9.21-29.61,9.21s-31.66-4.41-29.61-9.21c1.8-4.21,15-7.27,29.61-7.27S144.17,85.41,146,89.62Z" transform="translate(-5.43 -5.43)"/><path class="cls-13" d="M140.56,89.93c1.32,4-9.31,7.63-23.89,7.63S91.46,94,92.78,89.93c1.19-3.62,11.84-6.3,23.89-6.3S139.37,86.31,140.56,89.93Z" transform="translate(-5.43 -5.43)"/><path class="cls-6" d="M140.26,89.67c1.32,4-9.32,7.62-23.89,7.62s-25.21-3.6-23.89-7.62c1.18-3.62,11.83-6.31,23.89-6.31S139.07,86.05,140.26,89.67Z" transform="translate(-5.43 -5.43)"/><path class="cls-5" d="M139.63,89.79c1.25,3.92-9.11,7.42-23.26,7.42s-24.51-3.5-23.26-7.42c1.12-3.53,11.5-6.16,23.26-6.16S138.5,86.26,139.63,89.79Z" transform="translate(-5.43 -5.43)"/><path class="cls-13" d="M139.63,89.79a3.38,3.38,0,0,0-1-1.42,3.06,3.06,0,0,1,.68,1.1c1.25,3.92-9.11,7.42-23.26,7.42-10.77,0-19.33-2-22.27-4.72,2.59,2.85,11.4,5,22.59,5C130.52,97.21,140.88,93.71,139.63,89.79Z" transform="translate(-5.43 -5.43)"/><path class="cls-5" d="M86,91.15C86,96,99.59,100,116.38,100s30.39-4,30.39-8.85v9.69c0,4.89-13.61,8.85-30.39,8.85S86,105.73,86,100.84Z" transform="translate(-5.43 -5.43)"/><path class="cls-6" d="M116.66,109.69V100h-.59v9.69h.59Z" transform="translate(-5.43 -5.43)"/><path class="cls-6" d="M114.82,100h-.6v9.69h.6Z" transform="translate(-5.43 -5.43)"/><path class="cls-6" d="M144.15,94.74c-.19.13-.39.25-.59.37v9.69c.2-.12.4-.24.59-.37Z" transform="translate(-5.43 -5.43)"/><path class="cls-6" d="M142.3,95.77l-.59.27v9.69l.59-.27Z" transform="translate(-5.43 -5.43)"/><path class="cls-6" d="M113,100l-.6,0v9.69l.6,0Z" transform="translate(-5.43 -5.43)"/><path class="cls-6" d="M111.12,99.87l-.6,0v9.69l.6,0Z" transform="translate(-5.43 -5.43)"/><path class="cls-6" d="M109.27,99.76l-.6,0v9.69l.6,0Z" transform="translate(-5.43 -5.43)"/><path class="cls-6" d="M107.42,99.61l-.6-.06v9.7l.6,0Z" transform="translate(-5.43 -5.43)"/><path class="cls-6" d="M103.72,99.2l-.59-.08v9.69l.59.08Z" transform="translate(-5.43 -5.43)"/><path class="cls-6" d="M87.08,103.19a5.24,5.24,0,0,0,.59.55V94.05a5.24,5.24,0,0,1-.59-.55Z" transform="translate(-5.43 -5.43)"/><path class="cls-6" d="M105.57,99.43l-.6-.07v9.69l.6.07Z" transform="translate(-5.43 -5.43)"/><path class="cls-6" d="M101.87,98.93l-.59-.1v9.69l.59.1Z" transform="translate(-5.43 -5.43)"/><path class="cls-6" d="M98.17,98.24l-.59-.14v9.69l.59.14Z" transform="translate(-5.43 -5.43)"/><path class="cls-6" d="M94.47,97.28l-.59-.18v9.69l.59.18Z" transform="translate(-5.43 -5.43)"/></svg>